<?xml version="1.0" standalone="no"?>
<!DOCTYPE svg PUBLIC "-//W3C//DTD SVG 20010904//EN"
 "http://www.w3.org/TR/2001/REC-SVG-20010904/DTD/svg10.dtd">
<svg version="1.0" xmlns="http://www.w3.org/2000/svg"
 width="2048.000000pt" height="2048.000000pt" viewBox="0 0 2048.000000 2048.000000"
 preserveAspectRatio="xMidYMid meet">

<g transform="translate(0.000000,2048.000000) scale(0.100000,-0.100000)"
fill="#000000" stroke="none">
<path d="M9215 17871 c-16 -10 -50 -37 -74 -61 -41 -40 -43 -45 -37 -84 4 -22
9 -96 13 -163 l6 -123 -104 0 c-94 0 -171 -6 -314 -25 l-50 -7 -18 119 c-22
147 -39 229 -52 242 -13 13 -187 -25 -295 -64 -102 -37 -221 -100 -252 -133
l-26 -27 37 -162 c27 -116 34 -163 25 -163 -7 0 -14 -4 -16 -8 -5 -15 -239
-163 -248 -157 -12 7 -21 60 -28 165 -6 74 -10 95 -22 98 -30 5 -182 -192
-245 -319 -48 -95 -63 -209 -47 -350 22 -188 97 -355 209 -466 l73 -72 -108
-64 c-59 -35 -146 -84 -193 -110 l-87 -47 -7 65 c-3 36 -7 65 -8 65 -1 0 -53
13 -116 29 l-115 29 -30 -23 c-17 -13 -94 -63 -171 -112 -77 -48 -166 -106
-198 -128 l-57 -40 5 -115 c3 -63 8 -138 11 -165 l5 -50 -104 -52 -104 -52 -6
57 c-11 102 -20 117 -93 146 -35 14 -76 26 -90 26 -26 0 -164 -72 -364 -190
-52 -31 -102 -59 -111 -62 -13 -5 -18 -39 -29 -189 -10 -148 -15 -186 -29
-196 -9 -6 -86 -48 -172 -92 l-157 -81 -13 71 -14 71 -73 23 -73 23 -222 -127
c-257 -147 -232 -111 -243 -347 l-7 -151 -65 -32 c-35 -18 -66 -30 -69 -27 -3
2 -9 40 -14 83 -5 43 -11 83 -14 90 -5 16 -115 55 -139 49 -24 -6 -183 -105
-238 -148 l-38 -30 0 -142 0 -142 -42 -41 c-24 -22 -68 -59 -99 -82 l-56 -41
-293 0 -292 0 6 33 c3 17 6 101 7 185 l2 154 -54 54 c-46 47 -58 54 -92 54
-99 0 -429 -90 -481 -131 -30 -24 -37 -93 -28 -298 l7 -153 -35 -18 c-46 -23
-233 -101 -235 -98 -1 2 -6 51 -13 109 -15 139 -32 180 -90 219 -25 16 -53 30
-61 30 -48 0 -194 -151 -303 -315 l-61 -90 7 -80 c5 -68 38 -288 47 -320 2 -6
-7 -37 -19 -69 -20 -52 -24 -84 -28 -245 -4 -175 -24 -4683 -25 -5780 l0 -504
52 -86 c70 -115 124 -185 233 -299 120 -126 223 -201 381 -277 192 -93 388
-150 599 -176 197 -24 472 2 602 56 l36 15 2456 -1381 c1352 -760 2463 -1386
2470 -1392 11 -9 12 -75 6 -356 l-7 -346 76 -85 c114 -130 335 -350 402 -401
123 -95 366 -222 520 -273 131 -44 230 -56 450 -57 283 -1 484 28 692 97 247
82 421 186 602 359 141 135 203 232 291 453 l33 84 -7 192 -7 192 28 13 c15 7
165 91 333 186 168 95 415 232 550 305 276 150 403 227 497 301 57 46 68 51
100 46 86 -14 509 208 723 380 54 44 177 124 285 186 104 60 215 125 245 144
95 61 227 164 241 189 7 13 17 24 22 24 14 0 135 71 390 227 230 141 365 213
589 312 75 33 174 79 219 101 l82 42 231 2 c301 4 470 34 731 133 373 141 611
305 724 499 19 32 42 66 52 74 16 14 16 157 0 2750 -10 1504 -15 2740 -11
2745 18 23 41 125 46 205 3 47 16 156 30 243 l24 158 -50 72 c-66 94 -222 276
-237 276 -14 1 -19 -16 -27 -84 -4 -27 -16 -85 -28 -127 l-21 -77 -51 53 c-29
30 -85 71 -129 95 -42 24 -77 44 -77 45 0 1 19 45 42 97 33 75 41 106 41 151
0 31 -5 64 -12 72 -27 33 -169 122 -230 144 -67 24 -285 71 -332 72 -21 0 -26
-5 -26 -23 0 -25 -32 -299 -38 -332 -4 -21 -5 -21 -207 -3 -258 21 -398 38
-423 51 -50 26 -278 183 -462 320 l-203 150 -2 131 c-1 72 -3 158 -3 192 l0
61 -103 79 c-133 101 -210 153 -241 161 -32 8 -137 -29 -133 -47 5 -21 -22
-210 -29 -210 -4 0 -11 5 -14 10 -3 6 -13 10 -21 10 -11 0 -241 145 -263 166
-3 3 -11 73 -18 156 -12 138 -15 152 -35 167 -13 8 -126 94 -253 189 -255 192
-239 185 -340 142 -45 -19 -45 -20 -45 -68 0 -27 -3 -83 -6 -125 l-7 -76 -46
31 c-78 53 -295 210 -318 231 -20 17 -23 31 -23 86 0 36 7 107 15 156 16 101
19 155 7 155 -16 0 -318 194 -395 253 l-78 60 -42 -23 c-23 -13 -70 -41 -103
-62 -70 -43 -74 -53 -74 -191 0 -93 21 -98 -199 46 l-154 101 6 96 c4 52 9
131 13 175 l6 80 -84 47 c-45 26 -130 68 -188 93 -58 26 -124 56 -146 67 l-42
20 -55 -25 -55 -25 -7 -95 -7 -96 -72 36 c-82 41 -233 129 -258 150 -12 11
-18 39 -23 101 -4 48 -13 125 -19 171 l-12 85 -74 44 c-41 24 -119 67 -173 94
-92 47 -102 50 -158 46 -32 -2 -61 -7 -65 -10 -3 -4 -10 -57 -15 -119 -6 -63
-12 -115 -14 -117 -4 -4 -141 86 -197 130 -35 27 -38 34 -38 79 0 27 -5 93
-10 147 -9 80 -15 100 -32 112 -11 8 -43 36 -72 61 -100 90 -178 141 -207 135
l-27 -5 -5 132 c-4 108 -10 146 -32 212 -32 95 -31 147 10 327 l26 118 -62 90
c-64 94 -210 241 -272 274 l-34 19 -56 -32 c-31 -17 -58 -40 -61 -49 -6 -19
-36 -210 -36 -230 0 -8 -23 0 -63 22 -34 19 -94 47 -132 61 -39 15 -74 30 -78
34 -5 5 -1 82 7 171 9 90 16 171 16 180 0 11 -21 21 -72 34 -40 10 -134 38
-208 62 -114 36 -248 74 -261 74 -2 0 -17 -8 -34 -19z m285 -84 c63 -20 141
-43 173 -52 31 -9 55 -21 52 -26 -3 -5 -26 -20 -50 -35 l-44 -25 -143 45
c-167 53 -260 76 -307 76 l-34 0 24 26 c13 15 37 35 52 44 27 17 32 17 95 0
37 -9 119 -33 182 -53z m-980 -107 c-17 -34 -36 -62 -43 -64 -7 -1 -90 -28
-186 -60 l-174 -56 -29 27 c-27 26 -28 28 -11 41 81 61 355 163 461 171 8 1 1
-21 -18 -59z m745 45 c38 -8 97 -24 130 -34 33 -11 99 -31 148 -46 l87 -26 0
-152 c0 -84 4 -157 8 -162 25 -35 350 -205 392 -205 22 0 22 2 45 190 9 69 18
131 20 138 3 9 21 -6 47 -40 47 -59 156 -171 236 -241 l53 -46 -26 -118 c-29
-128 -29 -135 5 -323 28 -160 23 -266 -18 -395 -16 -49 -37 -106 -46 -127
l-16 -36 58 -56 c31 -30 60 -52 64 -48 10 10 38 203 38 265 0 53 8 57 53 24
18 -13 61 -40 97 -60 36 -20 77 -46 93 -59 l27 -23 7 -176 6 -177 66 -43 c36
-23 91 -58 121 -77 30 -20 85 -55 121 -79 37 -24 73 -43 81 -43 12 0 16 32 21
181 4 100 9 184 11 187 3 3 45 -20 93 -50 49 -29 105 -62 125 -71 21 -9 55
-28 77 -41 l39 -25 6 -118 c4 -65 9 -150 12 -189 l5 -71 62 -41 c34 -23 89
-61 122 -85 33 -24 123 -77 199 -117 l139 -72 -6 143 c-4 79 -3 161 1 182 l7
37 50 -33 c28 -19 114 -69 193 -112 l143 -77 -8 -97 c-4 -53 -8 -134 -8 -180
l0 -83 105 -65 c255 -156 424 -253 431 -246 4 5 3 44 -1 88 -12 106 -12 266
-1 284 7 11 24 6 87 -28 110 -60 322 -200 339 -225 11 -15 15 -54 15 -161 0
-186 5 -213 43 -234 16 -9 100 -58 186 -110 195 -117 361 -211 372 -211 5 0 9
55 10 123 1 67 4 148 8 179 l6 57 50 -38 c28 -21 113 -78 190 -126 234 -147
226 -140 224 -200 -2 -27 1 -105 5 -173 l8 -122 42 -19 c22 -10 133 -71 245
-135 112 -64 208 -116 212 -116 5 0 9 28 9 63 1 63 25 265 33 273 2 3 70 -39
151 -92 l146 -97 0 -101 c1 -126 23 -311 41 -332 7 -9 94 -77 194 -152 186
-140 277 -212 403 -318 l72 -62 228 -6 c125 -3 305 -11 400 -17 97 -6 177 -7
182 -3 4 5 12 47 19 94 16 122 28 160 51 160 30 0 284 -59 346 -81 32 -10 65
-19 75 -19 10 0 20 -4 23 -9 7 -11 -20 -89 -73 -210 -22 -52 -41 -97 -41 -101
0 -4 21 -21 48 -38 26 -17 94 -74 152 -126 58 -53 108 -96 113 -96 13 0 33 57
52 145 24 111 26 113 60 68 16 -21 56 -66 89 -100 l59 -63 -7 -175 c-4 -97
-11 -186 -15 -198 -8 -21 -9 -20 -15 8 -6 30 -41 58 -122 99 l-32 15 -73 -72
c-41 -40 -112 -101 -158 -136 l-83 -64 3 -175 4 -176 -40 -23 c-42 -23 -54
-18 -55 22 0 11 -5 36 -10 56 -9 33 -16 38 -100 72 -50 20 -101 37 -114 37
-21 0 -561 -136 -576 -145 -4 -3 -13 -40 -19 -82 -14 -100 -31 -232 -31 -244
0 -6 -69 -9 -185 -8 l-184 1 -74 -45 c-115 -72 -107 -75 -107 42 l0 100 -37
10 c-21 5 -65 17 -98 25 l-59 15 -66 -36 c-36 -20 -135 -76 -221 -124 l-157
-89 4 -127 c3 -71 6 -147 8 -170 l3 -43 -110 -55 c-61 -30 -115 -55 -119 -55
-5 0 -8 26 -7 58 1 32 0 63 -4 68 -3 6 -50 23 -103 39 l-97 29 -46 -25 c-96
-50 -273 -161 -361 -225 -81 -60 -90 -69 -86 -93 3 -14 8 -82 11 -151 l6 -125
-86 -58 c-48 -33 -89 -56 -93 -53 -3 4 -11 43 -16 89 l-11 82 -78 27 c-71 25
-81 26 -110 14 -43 -18 -367 -198 -439 -244 l-58 -37 7 -155 6 -156 -49 -35
c-52 -38 -279 -174 -307 -185 -14 -5 -17 6 -19 98 l-3 103 -92 14 -92 14 -68
-45 c-37 -25 -117 -73 -178 -108 -60 -34 -134 -78 -163 -98 l-54 -35 3 -181 3
-180 -67 -43 c-38 -25 -67 -38 -68 -30 0 6 -8 61 -17 122 l-18 110 -39 7
c-103 18 -108 16 -223 -90 -59 -53 -131 -117 -160 -142 l-53 -45 16 -129 c14
-106 15 -130 4 -137 -7 -4 -15 -6 -17 -4 -2 2 -17 52 -32 111 -31 120 -26 115
-126 127 l-51 6 -138 -145 c-78 -83 -139 -155 -140 -167 -1 -12 -3 -100 -4
-194 l-1 -172 -30 -16 c-16 -8 -31 -15 -34 -15 -2 0 -10 33 -16 74 -7 40 -15
78 -19 84 -3 6 -43 27 -88 46 l-83 37 -82 -16 c-92 -17 -384 -91 -494 -124
l-71 -22 -29 -195 -28 -195 -46 5 c-25 3 -117 13 -205 22 -88 9 -161 18 -163
19 -2 2 6 68 17 149 31 218 36 200 -61 226 -46 12 -129 37 -185 56 -111 37
-177 39 -187 5 -12 -40 -56 -250 -56 -265 0 -9 -2 -16 -5 -16 -13 0 -74 36
-142 83 l-73 49 0 52 c0 28 7 109 15 180 9 84 11 135 5 146 -26 49 -161 235
-199 275 l-43 46 35 97 c20 53 35 104 35 112 -1 8 4 53 11 100 20 153 31 294
25 328 -7 38 -96 118 -231 208 -101 68 -128 73 -213 41 -74 -27 -77 -33 -80
-142 -4 -127 3 -125 -143 -28 -141 93 -157 113 -157 197 0 53 -19 189 -28 202
-23 30 -222 195 -349 287 -132 96 -127 94 -209 59 -38 -16 -76 -32 -84 -34
-11 -3 -18 -31 -25 -111 l-10 -106 -85 53 c-47 30 -132 82 -190 118 l-105 64
-3 211 -2 211 -163 104 c-191 123 -288 178 -314 178 -10 0 -51 -21 -91 -47
l-72 -47 0 -113 c0 -62 -3 -113 -7 -113 -13 0 -101 55 -209 131 -126 89 -119
74 -129 254 -10 169 -6 160 -86 201 -39 19 -133 76 -210 126 l-140 91 -42 -23
c-63 -35 -64 -36 -76 -108 -22 -133 -18 -124 -54 -106 -18 9 -91 50 -163 90
l-131 75 -26 87 c-31 100 -47 173 -50 224 -2 34 -9 40 -139 126 -176 118 -169
116 -248 99 l-65 -13 -12 -69 c-6 -39 -12 -89 -12 -112 l-1 -43 -85 53 c-149
91 -141 80 -165 247 -11 80 -23 152 -25 160 -6 18 -138 132 -219 188 -83 59
-103 61 -170 18 l-56 -36 6 -77 c2 -43 7 -93 9 -111 4 -32 3 -34 -21 -28 -14
4 -44 18 -66 32 -27 17 -49 24 -67 21 -14 -3 -62 -12 -106 -21 -169 -33 -715
-8 -715 32 0 4 6 41 14 82 28 152 29 203 6 243 -23 38 -24 39 -212 101 -102
35 -150 41 -213 27 -29 -6 -29 -8 -57 -145 -15 -77 -29 -141 -31 -142 -2 -2
-47 25 -100 59 l-97 62 1 60 c0 33 6 114 12 180 l13 119 -106 158 c-95 143
-108 158 -134 158 l-29 0 6 54 c3 29 14 72 25 95 23 46 20 71 -32 267 -24 87
-25 98 -11 117 29 41 300 339 317 348 14 8 18 1 27 -44 6 -28 16 -106 21 -172
12 -143 15 -155 41 -155 25 0 232 104 317 159 33 22 64 50 68 63 4 13 7 87 6
166 0 79 3 154 8 167 6 16 27 30 67 45 99 37 276 80 344 82 l64 3 0 -221 c0
-163 3 -225 13 -236 9 -12 44 -17 140 -22 70 -3 209 -14 310 -22 l182 -16 43
38 c23 22 86 75 140 118 53 44 104 91 113 105 14 21 17 50 15 173 -1 94 2 155
9 169 12 21 216 127 226 116 3 -3 10 -41 15 -84 18 -159 32 -235 44 -239 31
-12 327 182 345 227 10 23 9 59 -4 174 -9 80 -19 151 -22 159 -4 10 27 31 103
72 59 31 150 81 201 111 52 29 95 53 97 53 10 0 17 -51 26 -174 5 -77 11 -142
14 -144 3 -3 13 2 22 10 16 14 144 86 437 245 60 32 114 66 120 75 7 12 6 66
-2 175 l-12 158 25 22 c29 26 223 141 340 203 73 38 79 40 89 23 6 -10 12 -80
14 -156 3 -104 8 -140 18 -144 19 -7 309 145 357 188 l41 35 8 150 c9 135 11
151 31 167 30 25 322 219 379 251 l46 27 6 -38 c3 -21 8 -86 12 -146 3 -59 10
-110 15 -113 11 -6 300 137 469 232 136 77 210 129 210 148 0 7 -20 30 -45 50
-71 59 -265 294 -292 355 -36 81 -83 275 -90 368 -5 69 -3 87 12 110 22 33
135 153 145 153 3 0 17 -47 30 -105 12 -58 29 -110 36 -116 10 -8 32 5 91 54
43 35 128 99 188 142 61 43 111 79 113 80 2 2 -3 14 -12 27 -27 42 -72 262
-58 285 10 15 291 113 325 113 22 0 27 -11 65 -141 23 -78 43 -143 44 -145 2
-1 123 1 270 4 231 6 270 9 284 24 14 14 17 37 15 160 -1 79 -6 169 -10 201
l-8 57 31 0 c17 0 62 -7 101 -15z m-671 -112 c26 -150 30 -207 14 -237 -14
-26 -15 -24 -51 103 l-37 130 22 46 c12 25 25 45 29 45 4 0 14 -39 23 -87z
m1161 40 c-2 -21 -10 -92 -16 -158 -6 -66 -13 -123 -16 -128 -2 -4 -17 -14
-34 -22 l-29 -16 0 79 c0 44 3 112 6 153 6 71 8 75 43 101 48 35 52 34 46 -9z
m571 -227 c88 -81 200 -232 185 -249 -5 -7 -23 -20 -39 -29 l-29 -17 -86 77
c-113 102 -237 243 -237 270 0 6 17 20 38 31 35 18 39 18 65 3 16 -10 62 -48
103 -86z m-2229 51 c10 -15 62 -270 56 -276 -2 -3 -10 2 -19 10 -16 16 -30 64
-62 211 -19 84 -19 87 -1 78 10 -6 22 -16 26 -23z m1023 -102 c0 -31 -3 -35
-32 -39 -42 -7 -468 -15 -468 -9 0 2 4 13 10 23 17 32 174 56 378 59 l112 1 0
-35z m735 -76 c39 -16 94 -43 123 -59 47 -27 52 -34 52 -65 0 -18 -4 -36 -9
-39 -10 -7 -204 88 -279 136 l-53 35 23 16 c27 19 48 16 143 -24z m-2164 -220
c-34 -33 -75 -80 -93 -105 -22 -30 -39 -44 -55 -44 -13 0 -23 3 -23 8 1 32
129 231 194 300 l31 33 3 -66 3 -66 -60 -60z m447 93 l24 -18 -89 -64 c-48
-35 -120 -89 -160 -121 l-71 -59 -12 51 c-11 43 -10 53 1 60 8 5 68 44 134 88
66 44 127 80 135 80 8 0 26 -8 38 -17z m2377 -59 c-17 -69 -45 -227 -45 -258
0 -34 0 -34 -31 -23 -35 12 -35 7 3 178 15 65 28 100 42 112 30 25 39 22 31
-9z m-2945 -260 c0 -59 30 -201 64 -308 14 -43 24 -80 23 -80 -9 -5 -94 -35
-99 -35 -12 0 -47 126 -59 211 -7 52 -9 120 -4 173 l7 86 34 0 c34 0 34 0 34
-47z m2880 -58 c41 -21 69 -117 77 -256 7 -126 2 -152 -31 -167 -27 -12 -26
-6 -47 -216 l-12 -118 -34 35 -35 35 32 83 c38 98 60 207 60 294 0 59 -35 299
-46 317 -8 12 4 10 36 -7z m-2735 -419 c78 -104 191 -233 237 -272 l47 -39
-22 -18 c-46 -36 -236 -143 -415 -232 -103 -52 -187 -93 -188 -92 -1 1 -4 30
-7 63 -5 43 -3 65 6 72 6 5 75 44 152 87 181 100 275 161 275 179 0 7 -11 17
-25 20 -39 10 -136 114 -173 186 l-33 65 38 17 c21 10 45 17 53 17 8 0 33 -24
55 -53z m2971 -65 c43 -32 94 -74 112 -93 33 -35 33 -35 11 -41 -17 -5 -46 8
-109 48 -47 29 -109 68 -138 87 l-54 33 39 12 c56 17 53 18 139 -46z m177
-173 c3 -13 9 -75 13 -138 l6 -115 -41 -33 -41 -33 0 99 c0 55 -3 127 -6 160
-6 58 -6 62 17 71 37 15 46 13 52 -11z m-3655 -115 c39 -9 72 -20 72 -25 0 -4
-4 -8 -9 -8 -4 0 -98 -60 -208 -133 l-200 -133 -59 18 c-32 10 -67 18 -76 18
-34 0 -18 16 83 80 55 36 146 95 202 132 56 37 107 67 112 68 6 0 43 -7 83
-17z m4236 -150 c72 -38 132 -75 134 -81 2 -6 -9 -12 -25 -14 -33 -4 -154 53
-263 124 l-75 49 50 -4 c38 -3 81 -20 179 -74z m-381 -128 l87 -58 0 -49 c0
-27 -3 -48 -7 -46 -10 4 -78 47 -213 134 l-110 72 41 31 42 30 36 -28 c20 -15
75 -54 124 -86z m561 -27 c8 -52 25 -235 26 -265 0 -14 -12 -28 -34 -41 l-35
-21 -5 42 c-3 23 -8 103 -11 179 -6 126 -5 137 12 141 37 9 41 6 47 -35z
m-4815 -10 l34 -10 -7 -76 c-3 -41 -6 -102 -6 -134 l0 -60 -30 6 c-16 3 -43 9
-59 12 -34 6 -37 17 -45 190 l-4 101 42 -9 c22 -5 56 -14 75 -20z m-465 -184
l47 -16 -98 -55 c-158 -89 -309 -181 -323 -198 -18 -22 -39 -19 -89 14 l-43
29 68 40 c179 104 360 202 375 202 8 0 37 -7 63 -16z m5831 -77 c11 -7 52 -26
90 -42 95 -38 287 -137 280 -144 -3 -3 -27 -13 -52 -23 -44 -17 -47 -16 -87 4
-73 37 -270 150 -294 169 l-23 18 28 15 c35 19 34 19 58 3z m-5370 -47 c17 -6
14 -11 -25 -39 -39 -28 -290 -161 -304 -161 -3 0 -6 24 -6 53 l0 52 113 57
c101 52 116 57 157 51 25 -3 54 -9 65 -13z m4943 -32 c37 -23 117 -67 177 -98
l110 -57 3 -63 3 -62 -123 66 c-98 52 -318 198 -318 211 0 5 64 45 73 45 4 0
38 -19 75 -42z m-5830 -158 c18 -13 23 -31 32 -119 5 -57 10 -123 10 -147 l0
-43 -77 27 -78 27 1 60 c1 33 4 104 8 158 l8 97 37 -22 c21 -13 47 -30 59 -38z
m6658 -32 c-3 -29 -9 -103 -12 -164 l-7 -110 -41 -27 c-22 -14 -42 -24 -45
-21 -2 2 2 82 9 178 l13 174 31 10 c58 19 59 17 52 -40z m672 -241 c40 -31
133 -93 207 -138 l136 -82 -73 -42 -72 -42 -43 43 c-24 24 -48 44 -53 44 -6 0
-54 27 -107 61 -52 34 -127 78 -165 99 l-71 38 39 25 c89 56 109 65 119 58 5
-5 43 -33 83 -64z m-7360 -44 l43 -18 -143 -75 c-78 -41 -191 -102 -250 -136
-119 -68 -118 -68 -118 21 l0 41 81 39 c44 22 126 66 182 97 111 63 126 65
205 31z m-585 4 c28 -12 26 -13 -120 -93 -265 -146 -248 -138 -294 -128 l-41
9 194 112 c106 61 202 111 213 112 11 0 33 -5 48 -12z m7393 -90 c60 -40 137
-90 172 -111 70 -42 84 -62 80 -112 l-3 -34 -36 24 c-20 13 -101 62 -180 107
-79 45 -166 97 -192 114 l-48 32 43 26 c24 15 46 26 49 27 3 0 55 -33 115 -73z
m900 -230 c-9 -57 -16 -134 -16 -170 l0 -64 -57 -25 c-52 -23 -59 -24 -65 -9
-4 9 -7 78 -7 153 l-1 137 77 45 c43 25 79 43 81 42 2 -2 -4 -51 -12 -109z
m-8661 44 c5 -16 35 -264 35 -288 0 -14 -59 -17 -124 -6 l-39 6 7 148 c3 82 9
155 12 162 7 19 102 -1 109 -22z m-399 -177 c13 -3 24 -9 24 -13 -1 -3 -35
-22 -78 -41 -42 -19 -91 -45 -110 -57 -22 -15 -47 -23 -75 -22 l-42 0 28 22
c58 46 202 127 215 122 8 -3 25 -8 38 -11z m9780 -225 c87 -67 187 -142 222
-167 65 -48 66 -59 5 -61 -31 -1 -414 242 -462 293 -14 14 -23 26 -20 26 2 0
22 7 44 15 22 8 43 14 46 15 3 0 77 -55 165 -121z m-555 -18 c80 -59 167 -121
192 -138 41 -28 47 -37 47 -68 0 -19 -1 -35 -3 -35 -14 0 -134 67 -251 139
-78 48 -169 103 -203 121 -35 19 -63 37 -63 41 0 10 114 56 125 50 6 -3 76
-52 156 -110z m-10414 77 c18 -18 33 -35 33 -39 0 -3 -28 -10 -62 -13 -82 -10
-269 -57 -348 -89 l-63 -26 -44 31 c-23 17 -43 33 -43 35 0 2 28 17 61 33 50
23 159 54 334 93 62 14 99 7 132 -25z m1591 7 c7 -6 -256 -175 -272 -175 -3 0
-8 17 -11 38 -4 20 -9 45 -11 54 -4 13 14 27 73 57 75 39 81 40 148 34 39 -3
72 -7 73 -8z m-618 -149 l0 -143 -45 10 -45 10 0 134 0 133 45 0 45 0 0 -144z
m-1470 -21 l34 -25 -3 -172 c-1 -95 -3 -173 -5 -175 -1 -2 -17 4 -34 13 l-32
15 0 185 c0 101 1 184 3 184 2 0 18 -11 37 -25z m1401 -136 c19 -6 40 -13 48
-15 20 -6 -11 -38 -144 -147 l-109 -90 -14 54 -13 53 28 21 c15 11 59 46 98
77 38 31 70 57 71 58 1 0 16 -5 35 -11z m-1856 -33 l31 -24 -93 -99 c-52 -54
-131 -141 -176 -195 l-82 -96 -22 21 c-13 11 -23 28 -23 37 0 39 203 299 274
351 48 35 51 35 91 5z m12248 -8 c3 -18 9 -78 12 -133 4 -55 8 -107 11 -115 3
-12 -11 -19 -55 -31 l-58 -15 -7 75 c-3 40 -6 111 -6 157 0 90 -1 89 71 93 23
1 28 -4 32 -31z m-10644 -145 c6 -21 11 -48 11 -61 0 -22 -3 -23 -42 -18 -83
11 -254 25 -395 32 -79 4 -143 10 -143 14 0 4 -3 22 -6 39 l-6 31 285 0 286 0
10 -37z m-1171 -95 c-23 -18 -291 -158 -302 -158 -3 0 -6 15 -6 33 0 33 2 34
103 77 56 23 120 53 141 66 32 18 43 20 63 11 l24 -11 -23 -18z m12374 4 c26
-15 90 -61 142 -102 84 -66 93 -76 73 -81 -33 -8 -52 1 -203 100 -127 84 -136
91 -113 100 37 15 51 13 101 -17z m-384 -130 c64 -44 132 -87 150 -96 27 -14
32 -22 32 -51 0 -19 -3 -35 -6 -35 -15 0 -404 224 -398 229 5 5 77 27 97 30 4
1 60 -34 125 -77z m-12715 -187 c14 -55 28 -119 32 -142 l7 -43 -35 0 c-41 0
-37 -11 -67 185 -26 168 -26 166 9 130 21 -22 35 -55 54 -130z m13376 -78 l3
-184 -31 -13 c-17 -7 -33 -11 -35 -9 -15 16 -33 369 -19 382 3 4 22 7 42 7
l36 0 4 -183z m-13349 -139 c0 -2 -7 -21 -15 -43 -8 -22 -14 -61 -15 -86 0
-39 -4 -47 -25 -57 -14 -7 -30 -12 -35 -12 -17 0 -11 88 11 145 18 49 23 55
50 55 16 0 29 -1 29 -2z m13550 -199 c96 -73 239 -175 318 -227 78 -52 142
-98 142 -102 0 -3 -16 -21 -35 -40 -26 -25 -39 -32 -49 -25 -8 6 -61 49 -118
98 -56 48 -192 154 -300 235 -109 81 -198 150 -198 154 0 7 48 37 60 38 3 0
84 -59 180 -131z m-13420 -135 c49 -75 90 -140 90 -145 0 -5 -13 -9 -29 -9
-24 0 -46 18 -127 108 -54 59 -107 117 -118 129 l-19 23 34 14 c67 30 71 27
169 -120z m14755 80 c137 -25 206 -49 286 -103 102 -69 105 -72 111 -109 2
-17 4 -32 4 -32 -1 0 -17 5 -36 10 -77 23 -259 69 -315 80 -132 25 -132 25
-153 83 -36 98 -36 98 -10 93 13 -3 63 -13 113 -22z m-14784 -214 l57 -55 -20
-180 -19 -180 48 -43 c56 -51 250 -182 269 -182 7 0 16 17 19 38 8 46 55 289
62 319 5 21 5 21 50 -7 85 -54 175 -83 327 -106 l39 -5 -7 -67 c-4 -37 -16
-109 -26 -161 -11 -52 -20 -114 -20 -137 l0 -43 53 -16 c84 -24 334 -55 444
-56 104 0 190 11 277 37 27 8 53 14 58 14 10 0 10 -765 1 -3357 l-6 -1971 -26
-13 c-15 -7 -89 -15 -173 -18 -100 -4 -151 -10 -160 -19 -8 -8 -14 -45 -16
-95 -4 -97 13 -140 67 -171 47 -27 176 -33 254 -13 l57 15 0 -177 c0 -126 -4
-182 -12 -194 -19 -24 -145 -55 -281 -68 -334 -32 -769 76 -1051 261 -168 111
-357 318 -465 511 l-31 56 10 2189 c5 1204 10 2284 10 2401 l0 212 33 -19 c17
-10 54 -24 80 -31 67 -16 82 0 94 106 6 44 8 85 6 92 -3 6 -33 24 -69 39 -35
15 -82 43 -105 62 l-42 36 6 570 c4 314 9 584 13 600 l7 29 65 -74 c36 -41 91
-99 123 -129z m14659 116 c10 -36 9 -57 -4 -121 -9 -42 -16 -90 -16 -105 0
-33 -13 -45 -28 -27 -8 9 -7 47 3 132 8 66 15 130 15 143 0 37 17 25 30 -22z
m-14531 -188 c0 -13 -6 -84 -12 -158 -11 -128 -13 -135 -34 -138 -27 -4 -27
-13 -8 153 8 72 15 138 15 148 0 10 8 17 20 17 14 0 20 -6 19 -22z m13936 -19
c44 -5 176 -18 293 -28 197 -16 215 -20 235 -41 l22 -22 -35 6 c-32 6 -502 25
-649 26 l-65 0 34 35 c38 39 46 40 165 24z m1490 -219 c32 -36 80 -96 107
-135 l49 -70 -43 -13 -43 -13 -53 58 c-107 118 -122 150 -106 232 8 37 0 42
89 -59z m-14891 33 c130 -43 155 -55 156 -75 0 -13 -60 -9 -129 7 -74 18 -231
89 -231 104 0 22 65 10 204 -36z m14527 -59 c45 -24 90 -59 129 -101 64 -68
65 -70 47 -121 l-12 -32 -85 78 c-68 62 -130 114 -179 149 -5 3 20 63 26 63 3
0 36 -16 74 -36z m-14885 -180 c25 -17 33 -57 13 -69 -11 -7 -106 53 -203 128
-37 29 -54 48 -45 51 8 2 21 6 29 9 13 3 64 -27 206 -119z m1670 15 c27 -17
87 -63 132 -102 84 -70 91 -86 36 -87 -15 0 -255 139 -302 175 -5 4 62 45 74
45 5 0 32 -14 60 -31z m6 -141 l127 -78 3 -171 3 -171 27 -23 c14 -12 80 -54
145 -92 229 -136 239 -138 247 -60 20 213 26 271 31 276 7 7 54 -21 149 -88
114 -81 122 -91 131 -147 4 -27 22 -112 40 -189 39 -163 32 -153 209 -263 170
-106 295 -174 306 -167 5 3 10 25 10 48 0 39 22 206 36 270 6 28 6 28 32 11
15 -9 91 -64 170 -122 l142 -105 1 -91 c0 -50 4 -124 8 -165 9 -89 2 -82 221
-217 210 -128 299 -172 311 -153 5 8 9 94 9 191 l0 177 73 -41 c39 -22 133
-80 208 -129 l135 -89 11 -186 c9 -159 14 -189 30 -204 23 -23 383 -253 482
-309 41 -23 80 -40 88 -37 10 4 13 44 13 181 l0 176 42 -23 c23 -13 132 -82
242 -154 231 -151 210 -121 224 -331 10 -154 -5 -134 175 -247 149 -93 248
-146 273 -146 29 0 34 22 35 150 0 58 4 124 7 148 l7 43 110 -67 c61 -36 137
-85 170 -108 l60 -42 -4 -214 -3 -215 -38 -57 c-62 -93 -89 -198 -59 -222 12
-9 10 -411 -15 -2758 -17 -1512 -33 -2748 -36 -2748 -3 0 -1112 623 -2465
1383 l-2460 1384 3 884 c1 486 5 1841 8 3012 4 1359 10 2127 16 2127 5 0 27
-15 49 -33 48 -42 108 -62 116 -41 3 9 4 87 1 174 -3 112 -1 157 6 153 6 -4
68 -42 138 -85z m13728 75 c0 -19 -27 -194 -35 -230 -3 -13 -11 -23 -18 -23
-9 0 -11 31 -9 126 3 118 4 126 25 134 32 13 37 12 37 -7z m-14785 -155 c45
-8 167 -13 340 -13 230 0 279 3 333 18 l63 18 74 -37 c74 -36 75 -38 75 -76 0
-51 -20 -50 -72 2 -22 22 -45 40 -50 40 -5 0 -53 -13 -106 -30 -184 -56 -273
-61 -522 -29 -178 23 -246 39 -244 57 1 7 2 26 3 43 1 24 5 29 19 25 9 -3 49
-11 87 -18z m1312 -156 l18 -123 -49 -14 c-27 -8 -52 -12 -55 -9 -3 3 -7 70
-9 150 l-4 144 33 14 c33 14 34 14 41 -12 3 -15 15 -82 25 -150z m13429 -51
c-4 -36 -12 -86 -18 -111 l-12 -45 -13 34 c-10 22 -11 37 -4 45 6 7 13 39 17
72 7 75 11 87 25 78 8 -4 9 -28 5 -73z m-175 32 c27 -14 49 -30 49 -34 0 -16
-229 -229 -246 -229 -16 0 -124 45 -124 52 0 3 39 38 88 76 48 39 107 91 132
116 24 25 46 46 48 46 2 0 26 -12 53 -27z m-12686 -113 c132 -86 136 -90 110
-100 -41 -16 -46 -14 -127 48 -42 33 -100 74 -128 92 -45 29 -50 35 -34 41 33
13 39 11 179 -81z m12783 -42 c24 -83 20 181 43 -3589 11 -1798 11 -1909 -5
-1950 -41 -101 -175 -262 -281 -336 -227 -160 -615 -306 -940 -354 -86 -13
-438 -19 -449 -8 -5 5 -26 3890 -26 4907 l0 473 205 -4 c112 -2 209 -1 214 3
11 6 41 215 41 284 0 95 3 99 92 124 116 32 416 92 464 92 49 0 47 5 65 -153
8 -69 17 -111 25 -114 17 -6 273 120 307 152 22 21 27 33 23 53 -3 15 -15 84
-27 154 l-21 127 44 38 c24 21 77 70 118 110 41 39 77 70 81 68 3 -3 15 -37
27 -77z m-13198 -47 c103 -67 105 -69 108 -110 2 -22 0 -41 -3 -41 -24 0 -329
179 -320 188 10 10 68 30 90 30 11 1 67 -30 125 -67z m-2475 -29 c35 -15 50
-26 49 -39 -9 -102 -16 -133 -32 -133 -9 0 -45 13 -79 30 l-63 29 0 96 0 96
38 -29 c20 -16 60 -38 87 -50z m3045 -32 c0 -19 53 -232 65 -262 5 -13 -2 -23
-27 -38 -18 -11 -38 -20 -45 -20 -10 0 -60 189 -77 291 -6 34 -5 36 31 45 44
12 53 9 53 -16z m12259 -6 c42 -18 63 -33 66 -48 17 -75 45 -259 41 -264 -5
-5 -156 23 -161 30 -4 5 -14 308 -10 308 2 0 31 -12 64 -26z m-333 -181 c55
-26 57 -27 29 -30 -59 -7 -341 -64 -435 -89 l-95 -25 -45 20 c-29 13 -40 22
-30 26 37 14 468 123 491 124 15 0 53 -11 85 -26z m-11229 -139 c66 -44 148
-93 182 -109 34 -16 61 -33 61 -37 0 -13 -81 -50 -97 -44 -8 4 -86 59 -174
123 l-158 117 27 18 c15 10 29 17 32 15 3 -1 60 -38 127 -83z m10699 -130 c-3
-55 -11 -135 -17 -177 l-11 -76 -59 45 c-33 25 -59 48 -59 52 0 16 31 259 36
284 l5 27 56 -27 56 -27 -7 -101z m-11177 77 c69 -38 143 -77 164 -87 l37 -18
0 -63 c0 -35 -3 -63 -6 -63 -17 0 -359 205 -397 238 -17 15 -16 17 25 39 24
12 45 22 47 23 3 0 61 -31 130 -69z m12083 35 l43 -12 -125 -62 -125 -62 -7
53 c-4 28 -4 53 0 55 4 1 25 13 47 27 43 26 82 26 167 1z m-11329 -274 c4 -64
9 -132 13 -150 6 -31 5 -33 -47 -57 -30 -13 -57 -21 -60 -17 -4 4 -10 70 -13
147 l-7 140 48 27 c26 15 51 27 54 27 3 1 9 -52 12 -117z m9572 107 c70 -18
71 -18 49 -33 -10 -7 -75 -44 -144 -81 -69 -37 -142 -80 -162 -96 l-38 -30
-59 16 c-32 8 -69 15 -82 15 -14 0 -19 4 -13 9 23 22 371 211 389 211 11 0 38
-5 60 -11z m86 -322 c-7 -53 -7 -73 2 -79 6 -3 75 26 153 65 l142 72 6 -1250
c3 -687 7 -1893 9 -2679 l2 -1430 -50 -29 c-27 -16 -135 -68 -240 -114 -248
-110 -340 -159 -636 -340 -248 -152 -328 -198 -335 -191 -9 10 -8 144 6 388
19 347 20 1341 2 1600 -16 220 -44 427 -73 530 -11 41 -41 124 -66 183 -92
218 -205 284 -441 257 -270 -30 -425 -150 -672 -522 -170 -253 -252 -442 -290
-663 -36 -214 -72 -664 -101 -1255 -13 -275 -7 -595 16 -860 8 -96 18 -270 21
-387 l7 -212 -34 -32 c-75 -70 -195 -142 -659 -394 -129 -71 -345 -191 -479
-267 -134 -76 -245 -137 -247 -135 -6 6 -14 850 -30 3150 l-14 2147 66 81 67
80 -6 112 c-4 62 -9 128 -13 147 -5 35 -5 35 83 90 48 30 115 77 147 103 71
56 68 59 86 -87 12 -92 10 -169 -5 -208 -16 -40 27 -28 143 40 140 83 216 141
237 182 11 22 15 65 15 182 l1 153 137 78 c76 43 162 96 190 118 29 21 55 39
57 39 3 0 5 -71 5 -159 0 -125 3 -161 14 -170 12 -10 45 3 168 67 152 78 356
200 377 225 6 8 12 80 13 186 l3 173 160 98 c89 53 197 116 240 140 l80 42 7
-39 c3 -21 10 -86 14 -145 4 -58 10 -112 15 -119 9 -16 65 9 273 123 l129 71
-5 156 -5 156 220 140 c121 77 224 142 228 143 11 4 11 -106 0 -208 -5 -46 -4
-80 2 -87 7 -10 55 10 196 82 102 52 207 111 233 130 l47 34 3 172 3 171 34
27 c18 14 104 65 190 112 l156 86 3 -100 c1 -54 -2 -131 -7 -170z m308 111 c1
-4 -63 -39 -140 -78 -96 -49 -140 -67 -135 -55 3 9 6 36 6 59 l0 43 92 56 92
56 42 -37 c23 -20 43 -40 43 -44z m341 42 l55 -41 -178 4 -178 3 -37 37 -37
37 161 0 160 0 54 -40z m-9676 -84 c45 -25 139 -82 209 -129 l128 -83 -57 -37
-57 -37 -151 99 c-83 54 -177 113 -208 131 -32 17 -58 33 -58 35 0 6 94 65
103 65 6 0 46 -20 91 -44z m8590 -4 l28 -8 -1 -147 c-1 -81 -4 -154 -7 -162
-5 -11 -17 -9 -67 10 -58 22 -62 25 -69 61 -4 22 -7 91 -7 155 l-1 116 48 -8
c26 -5 60 -13 76 -17z m-9085 -130 c53 -38 129 -88 169 -112 69 -42 72 -46 72
-82 0 -20 -5 -40 -10 -43 -16 -10 -165 74 -422 239 -10 6 -18 13 -18 16 0 5
89 48 104 49 5 1 52 -30 105 -67z m8580 -125 l74 -22 -232 -148 -232 -147 -37
19 c-20 10 -52 22 -70 26 -18 3 -30 10 -27 15 15 24 421 280 445 280 3 0 38
-10 79 -23z m-7729 -176 l0 -189 -51 -17 c-28 -9 -53 -15 -56 -12 -3 3 -7 80
-10 170 l-6 165 54 36 c30 20 57 36 61 36 5 0 8 -85 8 -189z m8171 98 c33 -12
59 -25 59 -29 0 -14 -377 -216 -387 -207 -1 2 1 33 5 71 l7 68 115 58 c63 32
121 59 129 59 8 1 40 -9 72 -20z m-879 -249 c15 -7 29 -18 32 -25 2 -7 8 -72
12 -145 l7 -131 -34 14 c-100 42 -109 49 -109 82 0 18 -3 80 -7 139 l-6 106
39 -14 c21 -7 51 -19 66 -26z m-6572 -109 c64 -45 216 -166 295 -236 l40 -35
-45 0 c-42 0 -62 11 -230 122 -102 67 -207 134 -235 149 l-49 28 54 25 c62 29
49 33 170 -53z m-515 -76 c88 -54 172 -105 187 -114 24 -14 28 -22 28 -63 0
-27 -2 -48 -5 -48 -10 0 -243 143 -374 228 -124 81 -124 81 -95 93 16 6 38 15
49 19 12 5 26 3 35 -5 8 -7 87 -57 175 -110z m6673 8 l35 -15 -89 -47 c-90
-48 -194 -110 -316 -188 l-67 -43 -56 22 c-30 11 -55 24 -55 27 0 8 98 66 301
176 118 64 180 93 193 89 11 -4 35 -13 54 -21z m428 -145 c2 -2 -65 -40 -149
-84 -98 -52 -155 -77 -159 -70 -13 19 -9 96 5 97 6 0 50 26 97 58 l85 58 58
-28 c32 -15 61 -29 63 -31z m-6232 -105 c2 -10 8 -54 11 -98 3 -44 8 -97 11
-117 5 -31 3 -38 -11 -38 -9 0 -29 -7 -45 -15 -28 -15 -30 -14 -34 7 -3 13 -7
73 -10 133 -2 61 -8 118 -11 128 -6 15 -1 17 38 17 35 0 47 -4 51 -17z m5332
-67 c3 -7 3 -80 2 -164 l-3 -152 -42 38 -42 37 -3 141 -4 142 44 -15 c24 -9
46 -21 48 -27z m-4709 -175 c48 -33 113 -81 143 -109 l54 -49 -32 -11 c-31
-11 -38 -8 -150 66 -65 43 -139 88 -165 102 -26 14 -47 28 -47 31 0 8 58 27
87 28 12 1 61 -26 110 -58z m-395 -157 c100 -64 107 -71 108 -101 0 -18 -2
-33 -5 -33 -19 0 -237 126 -334 193 l-44 30 44 22 44 21 40 -31 c22 -17 88
-62 147 -101z m4520 65 l52 -12 -34 -29 c-35 -30 -258 -166 -338 -207 -40 -20
-48 -21 -100 -10 -31 6 -61 14 -65 16 -5 3 65 49 155 102 89 53 181 109 203
124 45 30 53 31 127 16z m568 -74 c7 -9 -19 -30 -88 -73 -91 -57 -361 -202
-375 -202 -4 0 -7 27 -7 59 l0 59 123 71 c67 39 151 90 187 115 l65 43 43 -30
c24 -17 47 -36 52 -42z m-4483 -142 c-3 -65 -11 -156 -17 -203 -10 -73 -15
-86 -31 -86 -18 0 -19 11 -19 197 0 197 0 198 23 202 52 10 50 15 44 -110z
m3490 -73 l51 -11 7 -86 c9 -104 -1 -223 -19 -242 -12 -11 -22 -10 -68 12
l-55 24 -6 63 c-4 35 -7 108 -7 163 0 98 0 99 23 93 12 -3 46 -10 74 -16z
m-353 -179 c17 -6 14 -12 -25 -43 -94 -76 -277 -190 -299 -186 -19 2 -8 16 71
85 52 44 110 97 128 117 28 29 42 36 70 35 20 0 45 -4 55 -8z m-3174 -78 c0
-19 -73 -199 -85 -212 -7 -7 -25 -15 -40 -16 -30 -4 -29 4 11 94 35 78 114
171 114 134z m3507 -135 c-12 -10 -60 -41 -107 -70 -47 -28 -95 -58 -107 -66
-23 -14 -23 -14 -23 40 l0 54 82 50 83 51 47 -21 47 -21 -22 -17z m-624 -105
c17 -132 20 -203 8 -203 -21 0 -71 30 -71 43 -1 6 -7 56 -14 110 l-12 97 41 0
42 0 6 -47z m-2880 -22 c19 -22 67 -87 107 -145 l71 -106 -27 -10 c-15 -6 -30
-13 -35 -15 -4 -3 -48 48 -98 114 -50 65 -98 124 -106 131 -22 18 -18 33 13
52 37 22 35 23 75 -21z m2663 16 c13 -13 -78 -140 -178 -251 l-54 -59 -39 26
c-22 15 -45 27 -52 27 -33 0 -13 30 98 148 l121 128 49 -6 c27 -4 52 -9 55
-13z m-2662 -212 l89 -117 -12 -131 c-7 -73 -19 -149 -26 -170 -12 -35 -11
-40 8 -58 78 -73 317 -225 340 -216 7 3 19 35 25 73 7 38 24 124 39 191 l26
122 29 -20 c56 -40 187 -82 321 -104 20 -3 37 -11 37 -18 0 -7 -11 -91 -25
-187 -30 -209 -30 -207 -7 -219 19 -10 618 -39 626 -30 5 5 49 265 61 367 6
49 10 54 43 68 102 42 474 134 544 134 28 0 25 13 53 -210 9 -69 20 -129 25
-134 10 -10 200 100 256 149 l35 30 -21 160 c-11 88 -20 167 -20 175 0 8 34
53 76 100 42 47 95 111 117 142 22 32 43 56 45 53 2 -2 20 -62 39 -132 l34
-128 20 -2700 c11 -1485 18 -2794 17 -2910 l-3 -210 -56 -127 c-68 -153 -118
-225 -235 -339 -317 -308 -734 -459 -1264 -459 -287 0 -422 30 -655 145 -236
116 -315 173 -504 364 -90 91 -187 193 -214 226 l-50 60 7 800 c3 440 9 907
12 1037 l7 237 46 -39 c65 -55 152 -92 233 -98 l68 -5 16 39 c9 21 18 62 21
91 5 44 3 53 -10 53 -17 0 -22 -12 -32 -77 -4 -22 -12 -49 -19 -59 -13 -17
-17 -17 -80 -1 -77 19 -138 52 -202 111 l-46 41 11 1095 c6 602 14 1185 17
1296 l6 201 37 -12 c69 -24 97 -27 110 -11 6 8 15 52 18 99 l6 84 -69 37 c-38
20 -77 43 -87 50 -17 13 -17 45 -11 631 7 566 9 616 23 597 9 -11 56 -73 105
-137z m2866 -17 c0 -5 -17 -30 -37 -55 l-37 -45 -13 48 c-12 46 -11 50 9 65
17 13 28 15 50 7 15 -6 28 -14 28 -20z m-512 -68 c18 -11 39 -35 47 -52 13
-31 51 -305 43 -313 -2 -2 -36 6 -76 17 l-72 21 0 158 c0 149 4 189 19 189 3
0 21 -9 39 -20z m-2183 -92 c-4 -46 -10 -119 -14 -163 l-6 -79 -33 -7 c-27 -5
-32 -4 -28 10 3 9 12 81 21 161 15 140 22 159 54 160 11 0 12 -15 6 -82z
m1874 -82 l44 -23 -89 -17 c-132 -26 -266 -61 -381 -100 l-102 -35 -51 22
c-27 11 -50 24 -50 27 0 11 229 72 535 143 37 9 50 6 94 -17z m-1414 -46 c49
-17 123 -39 164 -51 99 -27 116 -44 36 -35 -116 13 -305 78 -305 105 0 16 6
14 105 -19z m864 -156 c8 -7 2 -61 -20 -209 -27 -182 -19 -170 -89 -132 -46
25 -60 37 -60 55 0 22 36 274 46 319 l4 23 57 -26 c31 -13 59 -27 62 -30z
m-1290 -12 c33 -26 162 -107 181 -114 5 -2 6 -17 2 -35 l-7 -32 -70 40 c-82
48 -205 137 -205 149 0 7 15 12 54 19 4 0 25 -12 45 -27z m2152 12 c30 -9 58
-19 63 -21 8 -5 -180 -133 -195 -133 -9 0 -19 54 -19 99 0 29 6 39 28 53 35
21 57 21 123 2z m-1317 -299 c261 -31 270 -32 319 -60 26 -15 47 -29 45 -30
-2 -3 -526 21 -535 24 -2 1 -3 19 -3 41 0 48 -10 46 174 25z m4227 -21 c-101
-22 -221 -85 -297 -157 -185 -172 -345 -427 -428 -680 -85 -259 -103 -459
-126 -1382 -6 -231 -15 -537 -21 -680 -5 -143 -14 -413 -19 -600 -5 -187 -9
-341 -9 -342 -1 -2 -19 -3 -41 -3 l-40 0 0 158 c0 88 -10 273 -22 413 -34 400
-30 737 18 1444 29 437 59 685 101 835 39 140 125 310 258 511 169 253 290
377 437 444 61 28 164 53 218 53 26 0 19 -4 -29 -14z m290 -42 c51 -26 56 -32
106 -132 99 -198 132 -364 165 -815 15 -215 15 -1086 -1 -1410 -6 -132 -14
-313 -18 -403 l-6 -163 -46 -41 c-69 -60 -218 -157 -439 -284 l-197 -113 -6
292 c-4 161 -10 904 -13 1653 l-7 1361 61 27 c80 36 167 54 266 55 71 1 89 -3
135 -27z m-490 -489 c0 -225 4 -966 9 -1648 l8 -1240 -27 -22 c-14 -12 -22
-22 -18 -23 25 -1 -149 -122 -300 -208 -110 -63 -331 -167 -338 -160 -4 4 9
477 29 1078 8 250 18 563 21 695 16 657 34 879 86 1089 62 250 155 435 331
658 67 85 171 188 189 188 5 0 9 -167 10 -407z m-5067 93 c-2 -12 -6 -42 -9
-67 -6 -47 -6 -47 -38 -39 -87 21 -87 21 -87 113 l0 84 68 -35 c55 -28 68 -40
66 -56z m-5184 -819 l0 -114 -27 -13 c-39 -18 -202 -25 -247 -10 -55 18 -67
44 -64 136 l3 79 140 6 c77 4 151 11 165 17 14 6 26 11 28 11 1 1 2 -50 2
-112z"/>
<path d="M9984 16038 c-60 -30 -68 -48 -72 -170 l-4 -108 -65 45 c-35 25 -70
45 -78 45 -8 0 -39 -16 -69 -35 -102 -65 -210 -93 -401 -102 -182 -9 -423 24
-515 71 -25 12 -31 11 -57 -6 -15 -10 -48 -30 -73 -43 -63 -33 -84 -50 -76
-63 4 -7 35 6 87 35 44 25 82 43 83 41 1 -1 12 -20 25 -40 l22 -37 -73 -42
c-40 -23 -92 -52 -114 -65 l-41 -23 -6 152 c-3 84 -9 162 -12 174 -5 16 -26
29 -74 47 -114 43 -100 46 -273 -56 -86 -51 -180 -106 -208 -123 l-52 -30 -2
-160 c-2 -88 -6 -167 -10 -176 -6 -15 -202 -139 -219 -139 -4 0 -7 33 -7 74
l0 74 -87 27 c-49 15 -99 28 -113 28 -14 0 -63 -24 -110 -55 -47 -30 -125 -79
-173 -109 -48 -30 -111 -72 -139 -94 l-51 -40 2 -78 c1 -44 -1 -119 -5 -168
l-7 -90 -60 -31 c-34 -17 -78 -41 -99 -54 l-38 -24 0 43 c0 25 -3 65 -6 91 -6
41 -11 49 -43 65 -20 11 -61 26 -91 35 l-54 16 -66 -43 c-36 -24 -141 -86
-233 -138 -93 -51 -174 -103 -180 -114 -7 -13 -12 -80 -12 -182 0 -93 -5 -166
-10 -171 -6 -5 -81 -46 -168 -91 -108 -57 -158 -78 -161 -69 -2 7 -9 31 -15
54 -8 32 -21 47 -58 71 -27 17 -71 39 -100 49 l-51 18 -40 -36 c-44 -40 -145
-109 -272 -186 -47 -28 -91 -56 -99 -61 -16 -10 -38 -137 -47 -271 -7 -104
-12 -114 -81 -161 -49 -34 -48 -35 -63 89 -6 48 -14 90 -18 93 -11 9 -122 49
-137 49 -7 0 -53 -37 -102 -81 -48 -45 -121 -106 -160 -136 l-73 -55 0 -120
c0 -133 2 -128 -97 -240 -38 -43 -35 -58 13 -81 69 -33 137 -93 179 -157 l43
-65 -89 -96 -89 -96 0 -207 c0 -237 2 -243 79 -300 27 -20 51 -41 53 -47 2 -6
10 -8 18 -4 12 4 15 37 17 186 1 100 4 183 7 186 3 3 22 -8 43 -25 21 -16 84
-59 140 -96 l103 -66 0 -169 c0 -167 0 -170 25 -199 26 -31 162 -118 293 -188
61 -33 74 -37 82 -24 5 8 10 84 10 167 l0 153 54 -24 c91 -40 266 -147 283
-172 11 -17 17 -68 23 -186 5 -90 13 -175 19 -189 7 -19 34 -40 88 -70 43 -24
129 -74 192 -111 136 -83 205 -118 227 -118 15 0 16 8 10 63 -13 131 -19 284
-10 290 6 3 81 -41 167 -98 87 -57 163 -105 168 -107 17 -6 29 -78 35 -208 3
-69 7 -134 9 -146 4 -20 201 -140 449 -275 76 -41 79 -42 93 -23 8 10 12 28 9
39 -11 42 -17 290 -8 303 7 11 57 -16 223 -120 l214 -134 -4 -185 c-2 -147 0
-187 10 -196 8 -6 113 -64 234 -129 121 -65 247 -135 280 -156 52 -34 61 -37
71 -24 6 9 14 82 17 167 4 83 8 154 11 156 6 6 347 -218 362 -238 20 -25 23
-72 12 -192 -9 -97 -9 -121 3 -143 22 -42 335 -240 520 -330 88 -42 89 -41 89
143 0 87 4 164 9 171 6 10 32 -3 104 -52 54 -36 121 -78 149 -92 29 -15 55
-28 57 -30 3 -2 7 -94 10 -204 7 -231 10 -241 78 -222 21 5 109 28 195 51 139
36 238 72 238 86 0 3 7 49 16 103 9 53 19 137 23 187 l6 90 45 8 c25 4 117 9
205 10 l160 2 -5 -130 c-3 -71 -5 -159 -5 -195 l0 -65 164 -3 c199 -3 205 -1
215 85 6 53 40 200 48 208 2 2 85 -18 185 -43 150 -37 182 -49 187 -65 4 -18
-4 -49 -64 -248 l-23 -76 43 -39 c49 -46 190 -148 266 -194 66 -40 80 -37 157
33 57 53 57 53 43 82 -9 20 -15 71 -17 147 -3 107 -2 120 16 137 35 35 198
132 207 123 12 -12 37 -151 45 -248 3 -47 10 -87 14 -90 5 -3 26 8 46 25 21
16 88 59 148 94 61 35 123 77 139 91 l29 28 -5 156 c-3 86 -3 163 -1 170 3 7
57 39 121 71 65 32 148 79 186 105 38 25 70 46 72 46 2 0 4 -67 4 -149 0 -113
3 -150 13 -154 7 -3 76 30 153 73 76 42 204 113 283 156 123 68 146 84 153
109 5 17 6 98 3 180 l-6 150 48 29 c26 16 98 56 158 89 61 33 139 80 175 103
45 31 66 40 71 31 13 -25 31 -200 24 -243 -5 -36 -3 -44 10 -44 18 0 156 68
300 147 l100 55 0 146 c0 81 3 159 7 173 6 19 34 44 100 86 86 55 337 193 352
193 9 0 7 -168 -4 -220 -15 -78 -15 -78 245 23 240 93 430 202 482 277 19 27
9 43 -67 99 -129 96 -205 204 -236 337 -21 91 -15 235 15 321 20 59 20 65 6
120 -9 32 -18 97 -22 144 -9 133 10 162 244 366 l71 63 13 -73 c6 -39 17 -115
23 -167 9 -75 15 -95 28 -98 23 -4 208 96 208 113 0 7 -44 36 -97 64 -132 69
-131 68 -139 137 -8 71 -22 96 -74 130 l-40 27 -45 -37 -45 -37 -83 36 c-45
20 -93 41 -107 47 l-25 10 3 175 c5 235 3 242 -73 206 -34 -16 -35 -16 -77 14
-90 63 -320 195 -332 190 -17 -7 -26 -61 -26 -154 0 -40 -3 -73 -6 -73 -3 0
-43 26 -87 59 -45 32 -107 75 -138 95 l-56 37 -12 137 c-12 135 -12 137 -43
164 -45 39 -433 316 -460 329 -17 7 -45 5 -108 -9 l-85 -19 3 -113 c2 -94 1
-112 -11 -107 -8 3 -92 60 -187 126 -94 67 -176 121 -181 121 -5 0 -9 42 -9
93 0 52 -3 142 -7 202 l-6 107 -41 24 c-23 14 -110 65 -194 115 -85 50 -168
97 -185 103 -42 17 -74 8 -162 -46 l-70 -43 -3 -88 c-1 -48 -5 -87 -8 -87 -4
0 -51 32 -107 71 -55 39 -121 83 -147 97 l-46 26 -12 120 c-7 67 -12 145 -12
173 0 51 -1 53 -40 73 -21 11 -99 55 -172 98 -73 42 -156 88 -184 101 l-51 23
-69 -29 -69 -30 3 -79 c2 -43 5 -87 8 -96 3 -10 3 -18 0 -18 -7 0 -89 49 -200
119 -52 34 -100 61 -105 61 -5 0 -13 5 -17 11 -7 12 -60 254 -71 322 -5 35
-11 41 -59 62 -29 13 -112 58 -183 99 -138 80 -168 88 -222 60 l-30 -15 3
-114 c2 -73 0 -111 -7 -107 -5 3 -58 41 -117 84 -102 75 -106 80 -111 121 -2
23 -12 89 -22 146 l-19 103 -51 49 c-84 79 -222 179 -247 178 -13 0 -41 -9
-64 -21z m159 -70 c93 -71 157 -127 157 -137 0 -4 -11 -13 -24 -20 -22 -12
-34 -7 -165 80 -77 52 -141 97 -141 100 0 7 61 38 78 38 7 1 50 -27 95 -61z
m57 -177 l35 -28 0 -153 0 -152 41 -37 c40 -35 297 -183 341 -196 39 -11 47
22 39 183 l-7 145 23 -15 c13 -8 87 -50 166 -92 78 -43 147 -87 153 -99 12
-22 31 -294 22 -326 -3 -13 8 -29 41 -57 69 -58 458 -293 475 -286 12 4 13 34
8 179 -4 130 -2 171 6 166 7 -4 53 -35 102 -68 50 -34 126 -84 170 -110 44
-27 82 -50 84 -52 2 -1 -4 -73 -14 -160 l-18 -157 34 -28 c108 -90 442 -278
495 -278 39 0 46 31 45 181 l-1 139 108 -56 c220 -116 269 -144 280 -157 6 -7
16 -62 22 -123 12 -119 33 -231 46 -244 25 -22 551 -365 566 -368 33 -6 53
129 38 257 -7 51 -10 95 -7 97 2 3 24 -11 48 -30 24 -19 132 -85 241 -146
l196 -112 1 -101 c1 -56 6 -131 11 -167 5 -36 10 -70 10 -77 0 -14 259 -188
359 -241 55 -29 74 -35 87 -26 23 14 42 107 44 214 3 147 -7 144 160 42 80
-48 156 -94 169 -102 l23 -15 -6 -198 -7 -197 44 -28 c24 -15 76 -42 115 -61
40 -19 72 -37 72 -40 -1 -3 -17 -19 -38 -34 -20 -16 -59 -49 -86 -75 l-49 -46
7 -76 c3 -42 17 -141 31 -219 l25 -142 -29 -68 c-39 -92 -55 -173 -47 -244 13
-131 75 -310 139 -405 16 -24 27 -49 24 -56 -7 -17 -116 -73 -261 -136 -65
-27 -120 -50 -122 -50 -2 0 -4 17 -4 39 0 21 -6 43 -13 49 -7 6 -48 25 -92 43
l-79 31 -66 -32 c-105 -51 -279 -149 -362 -204 -79 -52 -80 -53 -80 -116 0 -3
3 -66 6 -141 l7 -137 -100 -51 -100 -51 -6 57 c-11 90 -26 117 -79 143 -79 38
-114 37 -177 -3 -30 -19 -130 -73 -224 -121 -93 -47 -178 -92 -188 -100 -17
-13 -19 -29 -18 -159 3 -226 8 -213 -112 -279 -56 -31 -139 -75 -184 -97 l-83
-41 0 70 0 71 -47 21 c-27 11 -68 23 -93 25 -43 5 -48 2 -119 -56 -41 -33
-129 -90 -195 -126 -67 -36 -127 -69 -135 -74 -11 -7 -15 -46 -17 -171 -2
-109 -7 -167 -16 -177 -16 -20 -128 -76 -136 -68 -4 3 -12 34 -19 67 -16 80
-44 108 -133 137 -82 26 -74 29 -213 -79 l-96 -75 -2 -85 c0 -47 -4 -95 -7
-107 -7 -21 -8 -21 -27 -4 -11 10 -41 40 -67 67 l-47 49 14 95 c15 99 19 190
9 226 -9 32 -224 144 -362 188 -132 42 -196 54 -207 37 -4 -7 -20 -96 -36
-199 -17 -102 -31 -187 -32 -188 -1 -1 -29 2 -62 7 -33 4 -86 8 -117 8 l-58 1
5 129 5 130 -91 96 c-50 52 -101 98 -113 100 -11 3 -52 2 -89 -3 l-68 -9 -122
81 c-68 45 -156 97 -196 116 l-73 35 6 775 c3 426 6 1536 7 2465 1 1500 9
2218 23 2232 3 3 25 -9 50 -26 24 -17 56 -35 70 -41 46 -17 53 18 56 307 0 21
10 16 108 -48 59 -39 123 -83 142 -98z m-1776 109 c36 -11 67 -24 70 -29 3 -4
-62 -50 -145 -102 -83 -52 -167 -108 -188 -125 l-37 -32 -78 38 c-76 37 -78
39 -55 52 13 8 78 45 144 83 66 38 143 83 170 101 28 18 51 33 51 33 1 1 31
-8 68 -19z m100 -107 c3 -21 6 -93 6 -160 0 -75 4 -124 11 -128 5 -4 55 18
111 50 55 31 102 55 103 53 1 -2 6 -1228 10 -2725 l7 -2723 -31 0 -31 0 0 65
c0 65 0 65 -35 80 -31 12 -140 86 -298 199 -22 16 -52 29 -67 29 -30 0 -138
-39 -157 -57 -7 -6 -15 -55 -19 -113 l-7 -102 -41 21 c-23 11 -106 70 -186
130 l-145 108 -1 201 c-1 236 17 203 -164 300 -63 34 -150 82 -193 107 l-79
46 -113 -37 c-129 -43 -125 -38 -125 -169 l0 -70 -67 38 c-38 20 -106 60 -153
89 l-85 51 -5 184 -5 184 -192 96 c-106 52 -205 108 -220 123 -16 15 -36 27
-44 27 -12 0 -123 -61 -139 -77 -3 -2 -7 -45 -10 -94 l-5 -90 -95 48 c-113 57
-206 118 -225 147 -13 20 -26 107 -41 269 l-6 67 -136 82 c-75 45 -161 92
-190 105 l-52 25 -65 -31 -65 -30 0 -95 0 -95 -62 35 c-80 45 -136 87 -156
116 -12 16 -20 64 -27 167 -12 152 -9 143 -67 185 -14 10 -21 44 -33 177 -8
90 -19 198 -25 239 -5 41 -10 81 -10 88 0 7 -37 31 -82 53 -68 33 -88 49 -113
87 -18 27 -55 63 -91 87 l-61 40 34 50 c33 49 33 51 33 162 0 128 0 129 107
194 30 19 88 57 129 86 70 49 74 51 78 30 8 -39 26 -160 32 -217 7 -57 19 -90
33 -90 18 0 249 161 279 194 40 46 41 49 44 233 3 144 4 153 27 177 26 27 349
196 375 196 27 0 38 -48 44 -182 2 -71 8 -128 13 -128 13 0 417 228 481 272
46 30 65 51 80 86 19 43 20 54 10 147 -9 85 -5 176 9 189 14 13 203 123 262
152 39 20 88 47 110 61 21 13 42 21 45 18 4 -4 8 -68 10 -143 3 -163 6 -182
31 -182 10 0 47 19 82 41 35 23 105 64 154 91 154 85 156 89 175 307 6 74 13
138 16 142 2 4 53 33 112 65 59 32 152 85 208 119 l101 62 6 -150 c4 -83 10
-154 14 -158 34 -31 418 165 440 226 5 11 8 91 8 177 0 155 0 158 25 182 25
23 339 226 351 226 4 0 9 -17 13 -37z m1324 -28 c55 -35 62 -44 62 -72 0 -18
-3 -33 -6 -33 -17 0 -144 92 -144 104 0 22 11 47 20 44 4 -2 34 -21 68 -43z
m-116 8 c-6 -33 -19 -44 -92 -82 -113 -59 -333 -111 -466 -111 -91 0 -207 18
-277 43 -53 19 -63 28 -84 66 -13 24 -21 46 -19 48 2 2 38 -5 80 -16 274 -72
684 -42 826 60 34 25 38 24 32 -8z m612 -108 c23 -117 22 -120 -27 -150 -24
-14 -47 -25 -52 -25 -4 0 -5 62 -2 138 6 126 9 138 29 156 26 21 23 29 52
-119z m-616 -177 c-3 -117 -7 -711 -7 -1320 l-1 -1107 -32 -17 c-21 -11 -69
-19 -140 -23 -59 -3 -112 -11 -118 -17 -14 -14 3 -137 24 -169 11 -16 33 -27
72 -36 49 -11 66 -11 122 4 36 10 66 16 67 15 2 -2 0 -459 -3 -1015 l-5 -1012
-88 -46 c-68 -35 -90 -52 -95 -71 -8 -29 3 -120 17 -145 12 -24 67 -33 123
-21 l46 10 0 -149 0 -149 -34 -14 c-46 -19 -194 -55 -296 -72 -139 -23 -415
-17 -552 12 l-28 6 0 161 0 162 93 0 c190 0 231 47 167 193 l-19 42 -89 0
c-49 0 -103 3 -119 6 l-30 6 -6 2451 c-4 1348 -5 2452 -4 2454 2 1 31 -9 65
-23 214 -86 548 -64 773 50 46 24 89 43 94 44 7 1 8 -71 3 -210z m-1685 129
l59 -32 1 -146 2 -146 -70 32 -70 32 0 42 c2 174 6 251 13 251 4 0 33 -15 65
-33z m2791 -76 c56 -33 127 -73 158 -89 56 -29 57 -30 35 -45 -20 -13 -28 -11
-107 30 -193 102 -262 145 -248 154 28 18 65 7 162 -50z m-204 -248 c0 -19 -5
-33 -12 -33 -16 0 -275 145 -311 174 l-28 23 48 29 48 30 128 -95 c118 -88
127 -97 127 -128z m-3052 91 c32 -9 61 -20 65 -24 8 -7 -162 -111 -326 -199
l-99 -53 -70 14 -71 14 39 30 c21 17 82 57 134 89 52 32 124 77 160 101 73 48
89 51 168 28z m3537 -159 c14 -66 28 -127 30 -135 3 -11 -10 -20 -45 -32 -50
-16 -50 -16 -50 5 -2 66 -19 274 -25 289 -5 12 2 21 22 31 33 18 29 27 68
-158z m-3042 6 c-67 -56 -345 -195 -358 -179 -1 2 -5 33 -7 70 l-6 67 102 60
c55 32 110 66 120 74 18 13 27 10 100 -26 l81 -39 -32 -27z m-915 -142 c26 -7
48 -13 49 -14 5 -3 -25 -306 -30 -311 -3 -3 -31 5 -63 18 l-59 23 0 48 c1 26
2 92 3 147 l2 100 26 0 c14 0 46 -5 72 -11z m4592 -48 c140 -78 261 -148 266
-154 3 -2 -18 -19 -45 -37 l-51 -32 -77 47 c-107 65 -293 189 -293 195 0 5 74
37 90 39 3 1 53 -26 110 -58z m-490 -49 c41 -26 114 -72 163 -101 l87 -52 0
-65 0 -64 -67 43 c-38 24 -90 56 -118 71 -86 49 -265 169 -265 178 0 13 61 37
95 38 19 0 57 -17 105 -48z m-4536 -113 c14 -7 26 -16 26 -20 0 -4 -48 -34
-107 -65 -151 -80 -274 -154 -302 -182 l-24 -24 -64 27 c-35 15 -61 31 -56 35
4 5 81 48 169 98 89 49 181 104 205 121 37 26 51 31 85 27 23 -3 53 -11 68
-17z m5341 -255 l7 -72 -43 -7 c-24 -4 -61 -14 -83 -21 -21 -8 -40 -13 -41
-12 -1 2 5 66 14 142 l16 140 55 33 55 33 6 -83 c4 -45 10 -114 14 -153z
m-4967 132 c29 -11 52 -23 52 -26 0 -3 -26 -21 -57 -39 -32 -19 -102 -60 -156
-92 -54 -33 -102 -59 -108 -59 -5 0 -9 26 -9 58 l0 58 53 31 c81 48 161 91
167 89 3 0 29 -10 58 -20z m-788 -241 c0 -23 5 -78 11 -122 9 -67 8 -86 -5
-116 -8 -21 -20 -37 -25 -37 -6 0 -35 12 -65 27 l-54 26 -7 98 c-3 55 -4 128
0 163 l7 64 69 -31 69 -30 0 -42z m6510 -33 c80 -47 158 -93 173 -102 l29 -17
-81 -33 -81 -32 -47 30 c-27 16 -117 65 -201 108 -172 88 -169 81 -58 135 69
33 45 41 266 -89z m-684 10 c28 -16 101 -64 163 -108 l112 -79 -3 -50 c-3 -44
-6 -50 -23 -47 -65 9 -458 238 -460 267 0 11 99 44 135 44 14 0 48 -12 76 -27z
m913 -397 l1 -100 -68 -16 c-37 -9 -68 -15 -70 -14 -6 6 -31 170 -35 237 l-5
66 82 34 81 35 6 -71 c4 -39 7 -116 8 -171z m-7361 151 c7 -8 16 -4 -176 -101
-96 -49 -182 -100 -192 -113 -16 -20 -25 -23 -52 -17 -67 15 -65 20 28 75 116
68 200 125 246 167 l38 33 51 -20 c28 -10 54 -21 57 -24z m517 -3 c30 -15 55
-30 55 -33 0 -9 -439 -260 -455 -260 -3 0 -5 30 -5 68 l0 67 173 92 c94 50
173 92 174 92 2 1 27 -11 58 -26z m-959 -254 l44 -11 0 -152 c0 -191 0 -192
-89 -169 l-64 16 6 92 c9 138 27 235 44 235 8 0 34 -5 59 -11z m7920 -104 c60
-42 153 -106 207 -142 93 -63 97 -68 97 -102 0 -70 -8 -69 -141 21 -68 46
-186 124 -261 173 -76 49 -135 92 -130 96 9 9 71 27 98 28 11 1 69 -33 130
-74z m572 -5 c116 -80 322 -228 337 -243 7 -6 -6 -7 -37 -3 -34 5 -98 36 -223
107 -187 106 -285 167 -285 179 0 6 63 25 96 29 6 0 57 -30 112 -69z m-8875
-86 c26 -9 47 -20 47 -24 0 -10 -58 -52 -180 -128 -47 -30 -94 -61 -105 -70
-20 -17 -85 -19 -85 -3 0 5 17 20 38 33 20 14 82 67 136 117 55 50 100 91 101
91 1 0 22 -7 48 -16z m335 -167 c23 -6 42 -13 42 -17 0 -8 -231 -163 -235
-158 -1 2 -5 23 -8 48 l-6 46 64 44 c36 24 65 48 65 53 0 5 8 6 18 2 9 -4 36
-12 60 -18z m8923 -78 c4 -26 10 -85 14 -131 l7 -84 -53 -22 c-28 -12 -55 -20
-58 -17 -9 10 -19 116 -20 213 l-1 93 52 -3 53 -3 6 -46z m-9531 -126 c0 -100
-1 -104 -20 -99 -11 3 -29 9 -40 12 -18 5 -20 14 -20 102 l0 98 40 -4 40 -4 0
-105z m-32 -128 l22 -6 -30 -44 c-27 -39 -36 -44 -82 -52 -29 -5 -54 -8 -56
-7 -2 1 18 30 44 63 31 40 53 60 63 57 9 -2 26 -7 39 -11z m9718 -61 c60 -41
124 -85 142 -97 31 -21 33 -24 27 -67 -4 -25 -8 -46 -10 -48 -7 -8 -297 167
-364 219 l-23 19 53 25 c30 14 57 25 60 25 3 0 55 -34 115 -76z m-9703 -90
c53 -33 105 -82 122 -115 13 -24 11 -29 -16 -62 -17 -21 -34 -37 -37 -37 -4 0
-20 23 -35 50 -26 46 -147 160 -169 160 -21 0 -5 19 20 23 58 9 74 6 115 -19z
m10365 -168 c-1 -96 -6 -177 -9 -180 -3 -3 -19 -8 -35 -12 l-30 -6 4 169 c3
154 5 170 24 186 11 9 27 17 35 17 13 0 14 -25 11 -174z m-5220 -33 c-3 -75
-4 -78 -33 -93 -16 -8 -62 -16 -100 -18 -93 -5 -114 10 -122 89 l-6 57 89 7
c49 4 105 13 124 20 19 7 39 13 43 14 4 0 7 -34 5 -76z m-4910 7 c28 -13 52
-27 52 -31 0 -12 -240 -269 -251 -269 -22 0 -119 56 -117 67 5 22 240 264 252
259 6 -2 35 -14 64 -26z m87 -268 c10 -104 16 -194 14 -201 -3 -9 -33 10 -83
50 -43 35 -85 68 -92 74 -13 9 -23 7 -86 -20 -14 -5 -18 -2 -18 15 0 14 41 65
118 146 64 68 120 124 123 124 3 0 14 -85 24 -188z m10146 44 c41 -18 83 -36
94 -40 18 -6 17 -9 -10 -31 l-30 -23 -108 56 c-84 43 -105 58 -90 63 36 15 71
9 144 -25z m274 -21 l30 -25 -75 -68 c-107 -96 -246 -234 -253 -252 -4 -11
-18 -2 -51 34 -44 48 -45 51 -28 69 26 30 326 267 337 267 6 0 24 -11 40 -25z
m-10720 -125 c-13 -73 -23 -198 -24 -282 -1 -49 -5 -88 -10 -88 -5 0 -27 20
-50 45 l-41 45 0 190 0 190 66 -33 c65 -32 66 -32 59 -67z m157 -29 c18 -15
75 -60 127 -100 87 -66 92 -71 70 -80 -18 -7 -33 -4 -59 12 -51 30 -240 158
-240 163 0 4 53 33 62 34 4 0 22 -13 40 -29z m10741 -92 c42 -22 77 -44 77
-48 0 -9 -138 -77 -143 -70 -7 7 -23 159 -17 159 3 0 40 -18 83 -41z m-493
-219 c0 -36 7 -94 15 -130 18 -84 19 -80 -9 -80 -29 0 -31 7 -82 330 l-5 35
40 -45 c38 -42 40 -49 41 -110z m-9995 -26 c6 -71 16 -139 22 -150 17 -30 74
-78 130 -110 120 -68 123 -70 123 -119 0 -25 -3 -45 -7 -45 -30 0 -317 181
-333 210 -5 10 -10 86 -10 169 0 144 1 151 22 165 13 9 27 15 33 13 5 -2 15
-62 20 -133z m575 -167 c79 -46 145 -88 147 -93 2 -6 -12 -18 -31 -27 -30 -14
-36 -14 -46 -2 -14 17 -133 86 -240 140 l-75 38 30 13 c17 7 39 13 50 14 11 0
85 -37 165 -83z m9445 -64 c-35 -89 -45 -271 -20 -368 36 -140 132 -273 255
-356 27 -19 49 -41 47 -49 -4 -26 -115 -106 -225 -162 -104 -54 -429 -185
-437 -176 -2 2 -1 37 2 77 4 54 10 74 22 78 73 24 367 172 390 197 l24 26 -26
37 c-43 64 -106 204 -128 288 -24 94 -29 223 -10 280 8 21 24 63 37 92 20 45
28 53 50 53 21 0 25 -4 19 -17z m-9265 -85 c1 -54 29 -258 38 -275 8 -15 2
-24 -34 -52 -25 -19 -47 -31 -50 -28 -3 3 -10 78 -14 167 -4 89 -11 164 -14
168 -6 6 50 41 67 42 4 0 7 -10 7 -22z m783 -379 l170 -86 -73 -30 -73 -31
-63 39 c-35 21 -116 73 -179 115 l-116 77 47 28 48 27 34 -26 c19 -15 111 -66
205 -113z m-646 14 c38 -25 111 -66 163 -91 52 -25 96 -46 98 -47 6 -5 23
-138 18 -142 -6 -6 -69 27 -202 107 -64 39 -143 84 -175 100 -31 16 -60 34
-63 39 -5 7 78 81 91 81 1 0 33 -21 70 -47z m843 -292 l0 -158 -69 -30 -68
-31 -6 127 c-4 69 -9 142 -13 161 l-6 35 69 27 c37 15 74 27 81 27 9 1 12 -37
12 -158z m7826 -94 l28 -14 -130 -66 c-71 -36 -171 -93 -222 -127 l-92 -61
-72 25 -71 24 84 55 c46 30 149 88 228 130 143 75 144 75 182 62 21 -8 50 -20
65 -28z m-7123 -80 c73 -41 162 -90 200 -111 37 -20 67 -39 67 -41 0 -8 -119
-95 -130 -95 -6 0 -55 28 -108 61 -53 34 -148 93 -210 132 l-114 70 79 28 c43
15 79 28 81 28 2 1 63 -32 135 -72z m-606 -66 c44 -27 118 -70 166 -96 l87
-47 0 -65 0 -65 -97 52 c-111 59 -363 209 -363 215 0 8 95 54 112 55 9 0 52
-22 95 -49z m7274 -142 c15 -7 16 -27 12 -161 -3 -84 -7 -155 -10 -158 -5 -5
-59 24 -90 48 -20 16 -22 29 -29 164 l-7 148 54 -16 c30 -9 61 -20 70 -25z
m-6389 -246 l-7 -85 -50 -19 c-94 -36 -85 -44 -85 79 0 182 2 190 74 243 l61
46 7 -90 c4 -49 4 -127 0 -174z m1988 37 c0 -114 0 -114 -96 -108 l-49 3 -7
50 c-4 28 -5 57 -3 65 4 13 126 87 148 89 4 1 7 -44 7 -99z m-775 26 l89 -1
18 -58 c9 -31 15 -64 12 -72 -3 -8 -22 -19 -42 -26 -37 -12 -184 -15 -202 -4
-6 3 -10 44 -10 91 0 84 0 85 22 78 13 -4 63 -7 113 -8z m4700 1 c17 -7 39
-17 50 -24 19 -11 19 -12 -5 -32 -14 -11 -90 -57 -170 -102 -80 -45 -174 -100
-209 -121 l-63 -40 -56 35 c-31 19 -58 39 -60 45 -1 5 82 52 185 105 103 53
204 108 223 121 39 28 60 30 105 13z m406 -136 c38 -21 47 -31 37 -38 -7 -6
-77 -43 -155 -82 l-143 -71 0 54 0 55 103 54 c56 30 103 55 105 56 1 1 25 -12
53 -28z m-6151 -162 c80 -59 166 -117 193 -130 47 -23 47 -23 47 -72 0 -49 0
-49 -22 -35 -54 35 -133 80 -288 163 -91 48 -183 99 -205 113 l-39 25 74 27
c41 15 80 25 85 22 6 -3 75 -54 155 -113z m529 58 c110 -82 177 -128 215 -148
l29 -16 -45 -27 c-24 -14 -48 -26 -53 -26 -13 0 -365 232 -365 240 0 11 78 38
109 39 14 1 58 -24 110 -62z m4787 -94 l32 -16 7 -138 c4 -76 4 -143 1 -148
-5 -7 -30 -2 -72 13 -36 13 -66 26 -67 28 -2 1 -1 74 1 161 l4 158 31 -21 c18
-12 46 -28 63 -37z m-4526 -202 c0 -54 3 -125 6 -159 l7 -60 -57 -13 c-31 -7
-58 -10 -61 -7 -3 3 -1 57 4 119 5 63 9 127 8 144 -2 24 4 33 38 52 22 12 43
23 48 23 4 0 7 -44 7 -99z m1130 14 c80 -40 251 -150 251 -162 0 -4 -32 -13
-72 -19 -82 -14 -171 -42 -180 -55 -3 -6 -2 -31 2 -57 7 -38 19 -171 32 -355
2 -28 3 -28 -169 -103 -7 -3 -13 26 -18 88 -4 51 -14 123 -22 160 -17 74 -26
84 -179 194 -166 120 -165 120 -254 75 -66 -34 -71 -45 -71 -175 0 -81 9 -82
-138 12 -59 38 -144 91 -189 117 l-81 49 -7 92 c-4 51 -4 98 0 104 8 12 29 10
116 -9 91 -20 320 -31 439 -21 136 11 337 54 420 88 38 16 45 15 120 -23z
m3410 -156 c0 -4 -66 -41 -147 -84 -82 -43 -195 -105 -253 -138 -58 -33 -108
-62 -112 -64 -5 -2 -8 29 -8 70 l0 74 114 55 c62 31 148 76 190 101 l76 44 70
-26 c38 -14 70 -29 70 -32z m-592 27 l25 -13 -44 -33 c-66 -47 -169 -106 -264
-150 -76 -35 -90 -38 -141 -33 -69 7 -67 10 78 85 54 27 130 76 170 109 68 55
76 59 112 54 21 -3 50 -12 64 -19z m-2270 -129 l83 -84 -163 -7 c-90 -3 -181
-10 -203 -14 -37 -7 -46 -4 -133 52 -70 45 -90 61 -79 68 32 17 148 37 402 67
6 0 48 -37 93 -82z m-941 -61 c152 -108 154 -110 103 -125 -36 -11 -44 -9 -92
15 -62 31 -228 143 -228 153 0 10 61 40 81 40 9 1 70 -37 136 -83z m1553 22
c82 -26 282 -117 331 -152 15 -10 13 -15 -16 -51 l-33 -39 -195 48 -195 49
-26 86 c-14 47 -26 89 -26 93 0 11 51 0 160 -34z m-2161 -20 c47 -29 125 -77
172 -108 48 -30 100 -63 118 -72 29 -16 31 -21 31 -73 l0 -56 -117 60 c-122
62 -370 216 -411 254 l-23 22 48 11 c79 19 91 16 182 -38z m1139 -34 l62 -39
0 -62 c0 -57 -27 -273 -35 -282 -10 -9 -94 73 -99 97 -3 15 -10 90 -16 167 -5
77 -13 151 -16 165 -7 24 -7 24 17 9 13 -9 52 -34 87 -55z m876 -66 c9 -31 13
-63 10 -72 -3 -9 -16 -66 -28 -127 l-22 -110 -22 39 c-17 30 -20 45 -13 69 5
16 17 84 27 151 9 68 21 119 25 115 4 -5 14 -33 23 -65z m1421 20 c9 -8 19
-281 12 -309 -4 -16 -27 -36 -64 -59 -32 -19 -100 -60 -150 -92 -85 -53 -93
-56 -93 -35 0 12 -3 38 -6 58 l-6 37 78 41 c44 22 85 50 92 61 8 13 15 76 19
166 l6 146 54 -4 c29 -3 55 -7 58 -10z m-2643 -94 c5 -16 15 -87 22 -159 l13
-130 -46 -42 c-25 -23 -52 -42 -58 -43 -10 0 -13 33 -13 134 0 73 -3 160 -6
193 l-6 59 33 11 c45 14 51 12 61 -23z m1712 -188 l-18 -128 -45 -34 c-24 -19
-46 -33 -47 -31 -2 2 12 50 31 108 18 57 37 129 41 159 4 30 17 68 28 84 l21
28 4 -28 c1 -16 -5 -87 -15 -158z m505 88 c9 -3 -23 -30 -87 -73 l-102 -68
-50 11 c-27 5 -50 12 -50 15 1 4 44 38 96 78 l95 72 42 -15 c23 -8 48 -17 56
-20z m-1124 -64 c11 -4 30 -25 42 -47 l22 -39 -144 -2 -145 -1 0 23 c0 13 3
38 6 56 l7 32 96 -7 c52 -4 105 -11 116 -15z m-760 -128 c-15 -8 -73 -25 -129
-39 -55 -13 -130 -33 -165 -44 -35 -11 -66 -18 -68 -16 -3 3 51 50 109 96 10
7 57 30 105 51 l88 38 43 -36 44 -36 -27 -14z m1639 33 c33 -7 35 -9 40 -59 8
-74 12 -217 6 -213 -3 1 -31 16 -64 32 l-58 30 6 50 c3 28 6 79 6 114 0 51 3
62 14 58 8 -3 30 -9 50 -12z m-21 -271 c37 -21 67 -41 67 -45 0 -9 -81 -79
-91 -79 -13 0 -193 122 -263 178 -60 48 -66 56 -50 65 10 6 38 26 63 44 l44
34 81 -79 c45 -44 111 -97 149 -118z"/>
<path d="M2537 9097 c-13 -9 -20 -37 -28 -106 -6 -51 -8 -99 -6 -105 9 -22
140 -83 214 -100 84 -19 147 -20 228 -5 87 16 131 36 145 67 19 42 25 145 9
159 -8 6 -60 16 -115 22 -56 7 -171 27 -255 46 -176 40 -170 39 -192 22z m153
-52 c87 -21 207 -42 349 -62 l34 -4 -6 -55 c-3 -31 -11 -62 -17 -69 -16 -19
-137 -45 -210 -45 -84 0 -185 25 -249 61 l-53 31 7 70 c8 82 13 98 30 98 8 0
59 -11 115 -25z"/>
<path d="M2393 8767 c-6 -6 -18 -41 -28 -77 -9 -36 -22 -71 -27 -77 -27 -33
-121 2 -232 86 -47 36 -72 49 -79 42 -21 -21 101 -116 200 -157 73 -30 106
-30 133 -2 19 21 60 137 60 171 0 21 -16 30 -27 14z"/>
<path d="M2623 6610 c-31 -18 -71 -96 -79 -154 -4 -29 -1 -33 51 -64 l56 -34
-34 -41 c-19 -23 -44 -43 -55 -45 -39 -6 -126 48 -246 152 -45 39 -59 47 -69
37 -9 -10 1 -24 48 -68 74 -68 195 -149 236 -158 51 -11 95 18 137 92 5 8 37
-3 105 -38 109 -54 170 -64 200 -31 46 51 64 183 30 215 -18 15 -276 133 -324
147 -19 6 -36 3 -56 -10z m114 -54 c43 -18 115 -50 161 -71 l82 -38 0 -47 c0
-58 -16 -107 -40 -120 -35 -19 -159 35 -303 132 -62 42 -62 41 -32 113 11 27
40 65 50 65 2 0 39 -15 82 -34z"/>
<path d="M6245 9368 c-42 -73 -166 -194 -266 -260 -201 -133 -511 -254 -802
-313 -65 -13 -114 -28 -119 -36 -13 -27 -38 -229 -49 -408 -23 -356 28 -777
147 -1241 116 -449 315 -892 552 -1232 29 -43 56 -78 59 -78 12 0 212 138 290
201 121 98 271 247 357 354 302 376 636 1047 759 1525 l34 130 -72 55 c-158
121 -400 401 -549 635 -110 173 -249 493 -286 663 -7 31 -16 57 -19 57 -3 0
-19 -24 -36 -52z m65 -160 c97 -288 238 -543 449 -808 98 -123 263 -293 340
-350 39 -29 60 -52 61 -66 0 -31 -74 -285 -119 -406 -151 -406 -419 -901 -646
-1193 -120 -155 -378 -385 -559 -500 l-60 -38 -22 26 c-34 39 -173 269 -241
397 -215 404 -378 950 -449 1500 -22 177 -29 507 -14 671 12 129 35 287 44
296 2 2 62 17 133 33 439 97 840 301 999 509 21 28 40 49 42 47 2 -3 21 -55
42 -118z"/>
<path d="M6123 9001 c-219 -164 -573 -330 -824 -385 l-76 -17 -14 -107 c-21
-158 -18 -583 4 -737 42 -290 122 -617 228 -943 108 -329 222 -552 371 -722
l47 -53 94 81 c320 275 672 770 832 1167 65 162 128 401 155 594 l10 73 -92
92 c-245 242 -495 632 -592 924 -19 57 -36 105 -38 107 -1 1 -49 -32 -105 -74z
m207 -672 c0 -38 -58 -119 -86 -119 -15 0 -39 -28 -31 -36 11 -11 55 5 86 32
40 33 52 24 96 -71 30 -67 45 -82 99 -99 11 -4 16 -12 12 -22 -3 -8 -1 -24 4
-35 17 -30 3 -22 -36 21 -27 30 -51 44 -97 58 -50 14 -62 23 -67 42 -9 37 -36
32 -33 -5 3 -36 30 -58 93 -74 55 -14 121 -71 82 -71 -11 0 -24 5 -27 10 -11
18 -22 10 -29 -21 l-6 -30 -52 28 c-58 32 -87 65 -97 113 -3 19 -11 35 -18 37
-31 11 -19 -74 18 -121 11 -14 49 -42 85 -62 47 -26 66 -43 70 -62 13 -53 36
-83 90 -119 50 -33 55 -40 50 -65 -6 -33 -30 -66 -63 -92 l-23 -17 0 56 c0 40
-4 55 -14 55 -17 0 -26 -21 -26 -60 l0 -28 -41 14 c-22 8 -45 12 -50 9 -20
-13 -7 -33 26 -39 24 -5 46 -20 74 -53 34 -40 38 -49 29 -69 l-11 -23 -16 31
c-18 35 -46 56 -58 45 -4 -5 -2 -16 5 -25 7 -9 18 -28 24 -42 7 -14 23 -38 35
-53 24 -30 28 -53 14 -76 -7 -10 -14 -2 -28 30 -25 54 -47 74 -132 119 -52 28
-65 39 -63 55 16 90 14 106 -17 156 -17 28 -31 61 -31 75 0 29 -26 32 -35 4
-4 -14 5 -42 29 -84 36 -64 49 -113 24 -88 -23 23 -28 11 -28 -68 0 -85 10
-114 58 -178 18 -23 27 -50 30 -88 5 -66 -5 -68 -50 -12 -24 31 -34 55 -38 92
-5 49 -25 72 -36 42 -3 -9 -3 -36 0 -61 6 -35 18 -57 58 -100 28 -31 48 -58
45 -61 -11 -11 -97 35 -97 52 0 10 -14 42 -32 73 -24 42 -31 68 -31 104 1 49
-12 70 -28 46 -5 -8 -9 -34 -9 -58 0 -43 0 -44 -20 -26 -25 23 -26 69 -3 142
19 60 10 128 -17 128 -11 0 -14 -10 -12 -40 l4 -40 -24 21 c-47 43 -145 74
-235 74 -37 0 -56 26 -68 97 l-7 43 31 -11 c86 -30 171 42 171 145 0 36 -5 48
-26 65 -36 28 -115 28 -169 1 -22 -11 -40 -20 -42 -20 -1 0 -9 13 -18 30 -21
41 -19 82 8 120 29 44 45 48 39 12 -2 -18 2 -33 13 -42 15 -12 19 -12 31 5 8
10 14 29 14 41 0 13 5 26 11 30 8 5 10 -1 5 -19 -15 -61 34 -82 54 -23 6 19
18 40 26 47 9 7 25 31 36 53 26 53 83 113 130 137 41 21 127 26 159 9 18 -10
18 -12 3 -36 -13 -20 -14 -28 -5 -37 10 -9 17 -6 32 15 32 43 109 85 162 87
11 1 17 -6 17 -20z m235 -405 c16 -6 55 -82 55 -106 0 -16 -63 2 -88 25 -17
16 -25 18 -34 9 -17 -17 26 -60 67 -68 l32 -6 -24 -26 -24 -26 -34 18 c-58 32
-78 60 -83 120 l-4 55 38 4 c71 7 82 7 99 1z m-218 -567 c12 -12 29 -39 38
-59 14 -34 14 -38 0 -38 -8 0 -33 16 -55 36 l-40 36 6 -30 c7 -33 -11 -53 -21
-22 -3 11 -21 42 -40 69 -19 27 -37 60 -40 74 l-7 24 69 -34 c37 -19 78 -44
90 -56z"/>
<path d="M5900 8105 c-17 -21 -9 -47 22 -65 30 -16 41 -10 52 26 12 41 -46 72
-74 39z"/>
<path d="M6167 7924 c-11 -11 -8 -50 4 -77 6 -14 29 -34 50 -46 64 -36 100
-72 120 -119 19 -43 47 -55 41 -16 -11 60 -41 96 -135 161 -36 25 -46 38 -49
64 -3 32 -17 46 -31 33z"/>
<path d="M6240 7701 c0 -6 14 -31 31 -56 21 -31 35 -43 42 -36 13 13 -38 101
-58 101 -8 0 -15 -4 -15 -9z"/>
<path d="M6084 7534 c-9 -48 15 -128 40 -132 16 -3 18 0 11 19 -4 13 -9 52
-12 87 -6 71 -28 85 -39 26z"/>
<path d="M17415 10030 c-12 -4 -96 -27 -188 -50 -187 -48 -193 -52 -178 -120
5 -22 5 -42 0 -45 -4 -3 -68 -21 -141 -39 -74 -19 -136 -40 -141 -48 -6 -8 -7
-48 -2 -92 9 -104 29 -128 112 -134 59 -4 184 15 260 41 54 18 76 55 74 120
l-1 54 42 12 c88 26 228 99 237 124 15 38 -19 188 -42 186 -7 0 -21 -4 -32 -9z
m34 -80 c19 -86 18 -86 -66 -129 -86 -43 -200 -81 -243 -81 -26 0 -29 4 -44
71 -9 39 -16 77 -16 83 0 7 41 22 93 35 50 12 128 33 172 45 44 13 83 24 87
25 3 1 11 -22 17 -49z m-379 -188 c0 -31 25 -54 66 -61 37 -6 39 -8 42 -45 2
-25 -2 -44 -13 -56 -22 -24 -171 -59 -260 -62 -89 -2 -105 14 -105 111 l0 67
66 13 c36 8 91 21 122 31 74 23 82 24 82 2z"/>
<path d="M17355 6225 c-66 -25 -139 -52 -163 -61 -54 -20 -73 -40 -68 -67 3
-12 8 -43 11 -69 4 -34 11 -48 22 -48 12 0 14 12 11 67 l-3 67 140 52 c77 29
147 53 156 53 11 1 23 -17 36 -51 l20 -53 -23 -28 c-34 -40 -39 -72 -25 -142
14 -66 25 -85 41 -69 7 7 6 31 -4 74 -11 44 -12 69 -5 82 6 10 50 64 100 119
82 91 97 119 67 119 -6 0 -36 -27 -66 -61 l-55 -61 -28 61 c-15 34 -31 61 -36
61 -4 -1 -62 -21 -128 -45z"/>
<path d="M16586 6004 c-200 -43 -206 -46 -220 -141 -5 -35 -2 -46 18 -70 24
-28 25 -28 148 -28 96 0 144 5 218 24 92 23 140 48 113 58 -8 3 -13 23 -13 51
0 56 -15 113 -32 124 -23 14 -111 7 -232 -18z m222 -90 l3 -71 -70 -16 c-149
-36 -272 -42 -324 -15 -15 8 -18 17 -12 46 13 77 -11 65 225 117 36 7 90 13
120 12 l55 -2 3 -71z"/>
<path d="M15766 8911 c-22 -24 -25 -83 -5 -107 11 -14 14 -62 14 -253 0 -183
5 -261 19 -346 10 -60 19 -128 20 -150 l1 -39 -295 -151 c-162 -83 -335 -177
-385 -207 l-90 -56 -6 206 c-4 148 -12 237 -27 312 -35 182 -35 178 -13 207
25 31 27 80 5 111 -31 45 -82 14 -91 -56 -4 -32 -1 -44 16 -61 12 -12 21 -34
21 -50 0 -16 9 -73 20 -127 23 -111 35 -270 34 -451 l0 -121 -31 -29 c-39 -37
-47 -77 -40 -202 6 -112 33 -225 123 -509 119 -376 141 -502 131 -751 -7 -165
-21 -288 -63 -541 -16 -98 -26 -201 -27 -280 -2 -116 -1 -125 17 -125 20 0 80
106 212 375 189 385 234 511 262 724 l18 130 33 -50 c105 -158 180 -396 199
-634 6 -77 10 -95 24 -98 23 -4 41 34 66 138 54 221 76 445 62 629 -11 141
-20 204 -60 406 -53 268 -67 466 -51 696 11 157 48 425 75 554 9 42 11 74 6
79 -6 6 -28 -1 -57 -17 l-48 -26 -12 77 c-36 240 -46 395 -35 533 7 83 18 148
28 168 37 74 -20 147 -70 92z m154 -888 c0 -5 -6 -42 -14 -83 -47 -244 -60
-382 -60 -650 -1 -277 -1 -278 54 -565 50 -259 63 -384 56 -545 -6 -159 -24
-292 -58 -433 l-22 -92 -8 88 c-18 181 -91 407 -182 560 -55 92 -92 135 -105
122 -5 -5 -15 -62 -21 -125 -14 -138 -31 -226 -66 -328 -34 -104 -215 -489
-298 -637 l-68 -120 6 105 c3 58 16 168 30 245 52 299 73 563 57 725 -16 154
-41 266 -107 473 -121 378 -136 440 -141 583 -4 85 -2 138 5 151 27 50 238
175 636 377 136 70 258 133 269 141 23 16 37 19 37 8z"/>
<path d="M15798 7891 c-4 -11 -245 -155 -445 -266 -240 -134 -281 -162 -291
-199 -12 -43 2 -201 27 -298 11 -42 40 -124 65 -183 25 -59 52 -132 61 -163
29 -113 48 -359 49 -637 1 -260 0 -275 -27 -398 -15 -70 -28 -133 -30 -139 -1
-7 5 -13 14 -15 11 -3 38 43 101 174 47 98 95 205 106 238 34 96 100 334 113
408 7 37 16 67 21 67 33 0 190 -212 254 -342 16 -32 31 -58 35 -58 14 0 22
157 16 315 -7 161 -27 303 -82 550 -19 89 -28 162 -32 280 -7 184 5 304 48
509 16 77 29 145 29 153 0 15 -26 18 -32 4z"/>
<path d="M12826 7098 c-20 -29 -20 -96 0 -119 13 -15 14 -30 3 -125 -12 -119
-7 -209 22 -377 10 -61 21 -142 24 -181 l6 -71 -213 -119 c-117 -66 -291 -164
-387 -218 -132 -75 -176 -96 -182 -86 -5 7 -9 81 -9 163 -1 83 -5 182 -9 220
-37 297 -37 291 -13 334 26 46 28 88 6 119 -36 51 -94 13 -102 -67 -3 -39 0
-53 15 -68 32 -32 72 -367 73 -612 0 -127 -1 -134 -24 -162 -51 -60 -44 -204
19 -416 123 -414 178 -733 178 -1033 0 -152 -4 -208 -37 -425 -44 -292 -50
-438 -22 -497 10 -21 24 -38 30 -38 7 0 18 22 24 49 21 90 84 234 188 431 57
107 117 229 135 270 38 90 82 261 100 387 l13 91 41 -71 c22 -40 68 -119 102
-177 83 -142 114 -236 118 -364 2 -60 8 -102 15 -104 16 -6 66 114 84 199 26
124 36 243 43 464 6 241 -4 343 -61 600 -48 219 -60 344 -53 555 6 179 43 471
72 565 8 28 15 53 15 56 0 18 -37 17 -77 -1 -25 -11 -47 -20 -49 -20 -2 0 -4
19 -4 43 0 23 -9 96 -20 162 -42 243 -36 481 11 531 44 47 19 134 -37 134 -13
0 -30 -10 -38 -22z m159 -890 c-45 -212 -67 -415 -68 -623 -1 -210 8 -287 58
-515 42 -194 53 -264 61 -415 6 -132 -15 -437 -42 -590 -17 -100 -33 -141 -34
-86 -1 91 -57 232 -164 410 -37 60 -80 139 -97 175 -44 95 -61 89 -74 -24 -14
-122 -48 -288 -77 -374 -16 -50 -64 -156 -105 -236 -157 -300 -191 -370 -213
-436 -12 -38 -27 -73 -32 -79 -19 -19 0 225 33 435 30 186 33 226 33 430 1
138 -4 260 -12 315 -37 247 -87 471 -157 706 -39 127 -48 172 -52 261 -5 90
-3 111 11 133 21 32 108 88 312 201 88 48 260 145 383 216 123 70 228 128 234
128 6 0 7 -13 2 -32z"/>
<path d="M12794 6041 c-43 -26 -108 -66 -144 -88 -36 -22 -155 -86 -265 -141
-128 -65 -213 -114 -235 -137 -31 -32 -34 -40 -37 -112 -5 -84 2 -117 71 -338
113 -361 154 -566 163 -802 7 -172 -3 -266 -46 -446 -22 -92 -25 -119 -16
-127 51 -42 233 382 305 713 16 71 31 131 34 134 10 10 113 -86 160 -147 53
-71 91 -149 121 -245 28 -90 49 -94 53 -10 6 113 -17 387 -44 510 -95 445 -95
445 -101 616 -6 174 2 276 38 471 11 59 26 123 35 143 14 34 12 55 -5 55 -4 0
-43 -22 -87 -49z"/>
<path d="M11165 6631 l-170 -46 -1 -70 -1 -69 -139 -39 c-76 -21 -145 -44
-153 -50 -18 -15 -8 -154 14 -197 32 -62 130 -83 266 -56 131 27 150 47 152
167 l2 67 43 5 c52 6 159 57 191 91 28 30 36 91 24 181 -7 55 -10 60 -33 61
-14 1 -101 -19 -195 -45z m193 -78 c3 -80 2 -81 -27 -102 -61 -43 -139 -72
-201 -74 -80 -3 -92 10 -98 105 l-4 74 153 41 c85 22 159 40 164 39 6 -2 11
-39 13 -83z m-343 -165 c6 -13 27 -32 49 -42 l38 -19 -6 -65 c-10 -91 -15 -98
-95 -116 -120 -27 -229 -16 -252 25 -6 12 -13 53 -16 92 l-5 72 133 37 c74 20
136 37 139 37 3 1 10 -9 15 -21z"/>
<path d="M9364 4849 c-11 -19 -4 -201 10 -234 18 -42 65 -80 128 -101 100 -35
426 -16 448 25 14 28 34 231 23 242 -6 6 -29 5 -64 -1 -38 -8 -82 -7 -149 0
-90 11 -363 65 -381 75 -4 3 -11 0 -15 -6z m166 -68 c152 -32 228 -42 323 -42
l89 -1 -7 -51 c-17 -144 -5 -130 -128 -146 -196 -27 -344 1 -388 73 -15 24
-19 50 -19 114 0 75 2 83 18 78 9 -2 60 -14 112 -25z"/>
<path d="M11560 2455 c-30 -36 -55 -65 -55 -65 -1 0 -19 25 -39 55 -31 47 -41
55 -67 55 -46 0 -301 -89 -321 -112 -28 -32 -22 -148 8 -148 11 0 14 16 14 64
l0 64 133 45 c72 24 141 47 153 51 17 5 26 -3 52 -44 18 -28 32 -53 32 -56 0
-3 -16 -19 -35 -36 -55 -47 -57 -58 -34 -128 19 -56 41 -82 56 -67 3 3 -4 33
-15 65 l-20 60 75 73 c114 113 164 189 124 189 -4 0 -31 -29 -61 -65z"/>
<path d="M9444 2302 c-44 -37 -79 -73 -79 -79 0 -5 29 -32 64 -59 36 -28 66
-55 68 -61 4 -11 -107 -61 -142 -64 -39 -3 -47 2 -108 59 -95 89 -136 122
-152 122 -29 0 -15 -28 33 -66 26 -21 75 -64 109 -96 53 -51 66 -58 101 -58
41 0 129 31 171 60 22 16 27 15 110 -27 91 -46 194 -74 211 -57 18 18 44 138
36 169 -12 48 -79 101 -207 165 -65 33 -123 60 -128 60 -5 0 -44 -31 -87 -68z
m205 -27 c120 -61 181 -112 181 -151 0 -14 -5 -45 -11 -70 -8 -32 -16 -44 -30
-44 -25 0 -144 45 -188 72 -36 22 -186 138 -186 144 0 4 118 103 123 104 2 0
52 -25 111 -55z"/>
<path d="M10615 2259 c-226 -25 -287 -33 -291 -40 -2 -4 -9 -55 -16 -114 -8
-74 -8 -109 -1 -116 17 -17 159 -22 259 -10 106 13 183 34 214 59 22 18 22 20
10 93 -7 41 -18 86 -26 100 -12 24 -43 41 -69 38 -5 -1 -41 -5 -80 -10z m122
-59 c6 -14 14 -50 18 -81 l7 -56 -79 -23 c-84 -25 -306 -40 -331 -22 -10 7
-12 26 -7 79 4 39 11 76 15 83 4 6 56 18 116 25 228 29 245 29 261 -5z"/>
<path d="M14608 7163 c-3 -4 -2 -111 1 -237 5 -180 9 -230 20 -234 11 -4 13
35 10 226 -3 155 -8 235 -15 242 -7 7 -14 8 -16 3z"/>
<path d="M14324 6955 c-4 -9 -3 -73 1 -143 5 -70 7 -184 6 -253 -2 -78 1 -129
7 -133 6 -4 13 -3 15 1 9 15 11 280 3 406 -9 121 -18 159 -32 122z"/>
<path d="M14402 6364 c-7 -97 -9 -180 -6 -186 14 -23 24 15 34 136 14 175 13
226 -3 226 -10 0 -16 -44 -25 -176z"/>
<path d="M14745 6348 c-9 -24 -2 -93 10 -93 14 0 19 85 6 98 -7 7 -12 5 -16
-5z"/>
<path d="M14200 5880 c-11 -11 -22 -32 -26 -47 -3 -16 -7 -34 -10 -41 -12 -39
47 -99 86 -87 29 9 60 62 60 102 0 37 -42 93 -71 93 -10 0 -28 -9 -39 -20z
m68 -44 c24 -49 -10 -116 -49 -96 -24 13 -26 76 -3 108 19 28 35 24 52 -12z"/>
<path d="M14602 5838 c-21 -26 -52 -152 -64 -257 -13 -120 -5 -197 24 -215 44
-27 110 110 112 233 1 49 -1 56 -19 56 -22 0 -65 -57 -65 -86 0 -30 18 -22 40
19 l21 37 -7 -45 c-9 -62 -42 -168 -55 -176 -18 -11 -29 17 -29 71 0 74 26
231 50 299 11 33 20 63 20 68 0 12 -16 10 -28 -4z"/>
<path d="M14407 5583 c-9 -8 -9 -128 0 -350 5 -143 9 -173 21 -173 13 0 14 34
7 258 -6 240 -11 283 -28 265z"/>
<path d="M14332 4858 c2 -150 6 -202 16 -206 9 -3 12 42 12 202 0 178 -2 206
-15 206 -13 0 -15 -27 -13 -202z"/>
<path d="M13846 7208 c-17 -59 -56 -251 -56 -273 0 -42 24 -24 33 26 5 24 17
81 28 125 21 91 24 134 9 134 -6 0 -12 -6 -14 -12z"/>
<path d="M13877 6933 c-8 -106 4 -374 17 -370 17 6 18 437 1 437 -8 0 -14 -23
-18 -67z"/>
<path d="M13790 6799 c0 -52 24 -48 28 4 2 28 -1 37 -12 37 -12 0 -16 -11 -16
-41z"/>
<path d="M13647 6373 c-20 -19 11 -455 34 -477 23 -25 34 17 38 151 2 110 1
135 -10 131 -9 -3 -16 -27 -19 -64 l-5 -59 -7 70 c-5 39 -8 112 -8 163 0 84
-5 103 -23 85z"/>
<path d="M13936 5711 c-42 -47 -24 -141 28 -141 63 0 83 104 28 146 -23 18
-36 17 -56 -5z m48 -68 c1 -32 -2 -38 -19 -38 -24 0 -32 43 -15 76 16 29 32
11 34 -38z"/>
<path d="M13927 5433 c-3 -5 -8 -51 -12 -104 -5 -70 -4 -98 5 -104 6 -4 13 -5
15 -4 2 2 7 52 11 112 5 74 3 107 -4 107 -6 0 -13 -3 -15 -7z"/>
<path d="M13814 5078 c-4 -13 -6 -70 -4 -128 6 -152 6 -226 0 -299 -3 -44 -1
-65 7 -68 23 -8 33 147 25 382 -2 50 -2 99 0 109 4 28 -19 31 -28 4z"/>
<path d="M13692 4499 c2 -113 6 -153 16 -157 10 -3 12 28 10 149 -2 113 -6
153 -16 157 -10 3 -12 -28 -10 -149z"/>
<path d="M13502 4218 c2 -102 6 -143 16 -146 9 -3 12 30 12 142 0 124 -2 146
-15 146 -13 0 -15 -20 -13 -142z"/>
</g>
</svg>
